{"asset":{"version":"2.0","generator":"Blockbench 4.8.2 glTF exporter"},"scenes":[{"nodes":[14],"name":"blockbench_export"}],"scene":0,"nodes":[{"rotation":[-0.17364817766693033,0,0,0.984807753012208],"translation":[0,-0.625,-0.25],"name":"cube","mesh":0},{"translation":[0,-1.75,0.375],"name":"cube","mesh":1},{"translation":[0,-1.75,0.375],"name":"cube","mesh":2},{"translation":[0,-1.75,0.375],"name":"cube","mesh":3},{"translation":[0,1.125,-0.625],"name":"head","children":[1,2,3]},{"translation":[-0.625,-1.75,0],"name":"cube","mesh":4},{"translation":[0.625,1.125,-0.25],"name":"leftArm","children":[5]},{"translation":[0.625,-1.75,0],"name":"cube","mesh":5},{"translation":[-0.625,1.125,-0.25],"name":"rightArm","children":[7]},{"translation":[0,0.625,0.25],"name":"body","children":[0,4,6,8]},{"translation":[-0.25,-0.625,-0.1875],"name":"cube","mesh":6},{"translation":[0.25,0.625,0.1875],"name":"leftLeg","children":[10]},{"translation":[0.25,-0.625,-0.1875],"name":"cube","mesh":7},{"translation":[-0.25,0.625,0.1875],"name":"rightLeg","children":[12]},{"children":[9,11,13]}],"bufferViews":[{"buffer":0,"byteOffset":0,"byteLength":288,"target":34962,"byteStride":12},{"buffer":0,"byteOffset":288,"byteLength":288,"target":34962,"byteStride":12},{"buffer":0,"byteOffset":576,"byteLength":192,"target":34962,"byteStride":8},{"buffer":0,"byteOffset":768,"byteLength":72,"target":34963},{"buffer":0,"byteOffset":840,"byteLength":288,"target":34962,"byteStride":12},{"buffer":0,"byteOffset":1128,"byteLength":288,"target":34962,"byteStride":12},{"buffer":0,"byteOffset":1416,"byteLength":192,"target":34962,"byteStride":8},{"buffer":0,"byteOffset":1608,"byteLength":72,"target":34963},{"buffer":0,"byteOffset":1680,"byteLength":288,"target":34962,"byteStride":12},{"buffer":0,"byteOffset":1968,"byteLength":288,"target":34962,"byteStride":12},{"buffer":0,"byteOffset":2256,"byteLength":192,"target":34962,"byteStride":8},{"buffer":0,"byteOffset":2448,"byteLength":72,"target":34963},{"buffer":0,"byteOffset":2520,"byteLength":288,"target":34962,"byteStride":12},{"buffer":0,"byteOffset":2808,"byteLength":288,"target":34962,"byteStride":12},{"buffer":0,"byteOffset":3096,"byteLength":192,"target":34962,"byteStride":8},{"buffer":0,"byteOffset":3288,"byteLength":72,"target":34963},{"buffer":0,"byteOffset":3360,"byteLength":288,"target":34962,"byteStride":12},{"buffer":0,"byteOffset":3648,"byteLength":288,"target":34962,"byteStride":12},{"buffer":0,"byteOffset":3936,"byteLength":192,"target":34962,"byteStride":8},{"buffer":0,"byteOffset":4128,"byteLength":72,"target":34963},{"buffer":0,"byteOffset":4200,"byteLength":288,"target":34962,"byteStride":12},{"buffer":0,"byteOffset":4488,"byteLength":288,"target":34962,"byteStride":12},{"buffer":0,"byteOffset":4776,"byteLength":192,"target":34962,"byteStride":8},{"buffer":0,"byteOffset":4968,"byteLength":72,"target":34963},{"buffer":0,"byteOffset":5040,"byteLength":288,"target":34962,"byteStride":12},{"buffer":0,"byteOffset":5328,"byteLength":288,"target":34962,"byteStride":12},{"buffer":0,"byteOffset":5616,"byteLength":192,"target":34962,"byteStride":8},{"buffer":0,"byteOffset":5808,"byteLength":72,"target":34963},{"buffer":0,"byteOffset":5880,"byteLength":288,"target":34962,"byteStride":12},{"buffer":0,"byteOffset":6168,"byteLength":288,"target":34962,"byteStride":12},{"buffer":0,"byteOffset":6456,"byteLength":192,"target":34962,"byteStride":8},{"buffer":0,"byteOffset":6648,"byteLength":72,"target":34963},{"buffer":0,"byteOffset":6720,"byteLength":80},{"buffer":0,"byteOffset":6800,"byteLength":320},{"buffer":0,"byteOffset":7120,"byteLength":80},{"buffer":0,"byteOffset":7200,"byteLength":320},{"buffer":0,"byteOffset":7520,"byteLength":76},{"buffer":0,"byteOffset":7596,"byteLength":304},{"buffer":0,"byteOffset":7900,"byteLength":76},{"buffer":0,"byteOffset":7976,"byteLength":304},{"buffer":0,"byteOffset":8280,"byteLength":64},{"buffer":0,"byteOffset":8344,"byteLength":256},{"buffer":0,"byteOffset":8600,"byteLength":64},{"buffer":0,"byteOffset":8664,"byteLength":256},{"buffer":0,"byteOffset":8920,"byteLength":184},{"buffer":0,"byteOffset":9104,"byteLength":736},{"buffer":0,"byteOffset":9840,"byteLength":188},{"buffer":0,"byteOffset":10028,"byteLength":752},{"buffer":0,"byteOffset":10780,"byteLength":184},{"buffer":0,"byteOffset":10964,"byteLength":736},{"buffer":0,"byteOffset":11700,"byteLength":184},{"buffer":0,"byteOffset":11884,"byteLength":736},{"buffer":0,"byteOffset":12620,"byteLength":28},{"buffer":0,"byteOffset":12648,"byteLength":112},{"buffer":0,"byteOffset":12760,"byteLength":28},{"buffer":0,"byteOffset":12788,"byteLength":112},{"buffer":0,"byteOffset":12900,"byteLength":156},{"buffer":0,"byteOffset":13056,"byteLength":624},{"buffer":0,"byteOffset":13680,"byteLength":116},{"buffer":0,"byteOffset":13796,"byteLength":348},{"buffer":0,"byteOffset":14144,"byteLength":164},{"buffer":0,"byteOffset":14308,"byteLength":656},{"buffer":0,"byteOffset":14964,"byteLength":148},{"buffer":0,"byteOffset":15112,"byteLength":592},{"buffer":0,"byteOffset":15704,"byteLength":168},{"buffer":0,"byteOffset":15872,"byteLength":504},{"buffer":0,"byteOffset":16376,"byteLength":164},{"buffer":0,"byteOffset":16540,"byteLength":656},{"buffer":0,"byteOffset":17196,"byteLength":172},{"buffer":0,"byteOffset":17368,"byteLength":516},{"buffer":0,"byteOffset":17884,"byteLength":104},{"buffer":0,"byteOffset":17988,"byteLength":312},{"buffer":0,"byteOffset":18300,"byteLength":108},{"buffer":0,"byteOffset":18408,"byteLength":324},{"buffer":0,"byteOffset":18732,"byteLength":68},{"buffer":0,"byteOffset":18800,"byteLength":272},{"buffer":0,"byteOffset":19072,"byteLength":64},{"buffer":0,"byteOffset":19136,"byteLength":256},{"buffer":0,"byteOffset":19392,"byteLength":68},{"buffer":0,"byteOffset":19460,"byteLength":272},{"buffer":0,"byteOffset":19732,"byteLength":68},{"buffer":0,"byteOffset":19800,"byteLength":272},{"buffer":0,"byteOffset":20072,"byteLength":64},{"buffer":0,"byteOffset":20136,"byteLength":256},{"buffer":0,"byteOffset":20392,"byteLength":64},{"buffer":0,"byteOffset":20456,"byteLength":256},{"buffer":0,"byteOffset":20712,"byteLength":228},{"buffer":0,"byteOffset":20940,"byteLength":912},{"buffer":0,"byteOffset":21852,"byteLength":232},{"buffer":0,"byteOffset":22084,"byteLength":928},{"buffer":0,"byteOffset":23012,"byteLength":228},{"buffer":0,"byteOffset":23240,"byteLength":912},{"buffer":0,"byteOffset":24152,"byteLength":228},{"buffer":0,"byteOffset":24380,"byteLength":912}],"buffers":[{"byteLength":25292,"uri":"data:application/octet-stream;base64,"}],"accessors":[{"bufferView":0,"componentType":5126,"count":24,"max":[0.5625,1.8125,1.3125],"min":[-0.5625,0.4375,0.25],"type":"VEC3"},{"bufferView":1,"componentType":5126,"count":24,"max":[1,1,1],"min":[-1,-1,-1],"type":"VEC3"},{"bufferView":2,"componentType":5126,"count":24,"max":[0.5467529296875,0.3045654296875],"min":[0.0001220703125,0.0001220703125],"type":"VEC2"},{"bufferView":3,"componentType":5123,"count":36,"max":[23],"min":[0],"type":"SCALAR"},{"bufferView":4,"componentType":5126,"count":24,"max":[0.4375,2.9375,0.0625],"min":[-0.4375,1.6875,-0.8125],"type":"VEC3"},{"bufferView":5,"componentType":5126,"count":24,"max":[1,1,1],"min":[-1,-1,-1],"type":"VEC3"},{"bufferView":6,"componentType":5126,"count":24,"max":[0.9842529296875,0.2655029296875],"min":[0.5469970703125,0.0001220703125],"type":"VEC2"},{"bufferView":7,"componentType":5123,"count":36,"max":[23],"min":[0],"type":"SCALAR"},{"bufferView":8,"componentType":5126,"count":24,"max":[1,2.75,-0.374937504529953],"min":[0.4375,2.1875,-0.375],"type":"VEC3"},{"bufferView":9,"componentType":5126,"count":24,"max":[1,1,1],"min":[-1,-1,-1],"type":"VEC3"},{"bufferView":10,"componentType":5126,"count":24,"max":[0.6561279296875,0.6717529296875],"min":[0.5155029296875,0.6014404296875],"type":"VEC2"},{"bufferView":11,"componentType":5123,"count":36,"max":[23],"min":[0],"type":"SCALAR"},{"bufferView":12,"componentType":5126,"count":24,"max":[-0.4375,2.75,-0.374937504529953],"min":[-1,2.1875,-0.375],"type":"VEC3"},{"bufferView":13,"componentType":5126,"count":24,"max":[1,1,1],"min":[-1,-1,-1],"type":"VEC3"},{"bufferView":14,"componentType":5126,"count":24,"max":[0.5155029296875,0.6717529296875],"min":[0.3748779296875,0.6014404296875],"type":"VEC2"},{"bufferView":15,"componentType":5123,"count":36,"max":[23],"min":[0],"type":"SCALAR"},{"bufferView":16,"componentType":5126,"count":24,"max":[0.9375,1.9375,0.25],"min":[0.5625,0.0625,-0.25],"type":"VEC3"},{"bufferView":17,"componentType":5126,"count":24,"max":[1,1,1],"min":[-1,-1,-1],"type":"VEC3"},{"bufferView":18,"componentType":5126,"count":24,"max":[0.4373779296875,0.6014404296875],"min":[0.2188720703125,0.3048095703125],"type":"VEC2"},{"bufferView":19,"componentType":5123,"count":36,"max":[23],"min":[0],"type":"SCALAR"},{"bufferView":20,"componentType":5126,"count":24,"max":[-0.5625,1.9375,0.25],"min":[-0.9375,0.0625,-0.25],"type":"VEC3"},{"bufferView":21,"componentType":5126,"count":24,"max":[1,1,1],"min":[-1,-1,-1],"type":"VEC3"},{"bufferView":22,"componentType":5126,"count":24,"max":[0.2186279296875,0.6014404296875],"min":[0.0001220703125,0.3048095703125],"type":"VEC2"},{"bufferView":23,"componentType":5123,"count":36,"max":[23],"min":[0],"type":"SCALAR"},{"bufferView":24,"componentType":5126,"count":24,"max":[0.5,0.625,0.375],"min":[0.0625,0,0.0625],"type":"VEC3"},{"bufferView":25,"componentType":5126,"count":24,"max":[1,1,1],"min":[-1,-1,-1],"type":"VEC3"},{"bufferView":26,"componentType":5126,"count":24,"max":[0.3748779296875,0.7186279296875],"min":[0.1876220703125,0.6016845703125],"type":"VEC2"},{"bufferView":27,"componentType":5123,"count":36,"max":[23],"min":[0],"type":"SCALAR"},{"bufferView":28,"componentType":5126,"count":24,"max":[-0.0625,0.625,0.375],"min":[-0.5,0,0.0625],"type":"VEC3"},{"bufferView":29,"componentType":5126,"count":24,"max":[1,1,1],"min":[-1,-1,-1],"type":"VEC3"},{"bufferView":30,"componentType":5126,"count":24,"max":[0.1873779296875,0.7186279296875],"min":[0.0001220703125,0.6016845703125],"type":"VEC2"},{"bufferView":31,"componentType":5123,"count":36,"max":[23],"min":[0],"type":"SCALAR"},{"bufferView":32,"componentType":5126,"count":20,"max":[1.1666666269302368],"min":[0],"type":"SCALAR"},{"bufferView":33,"componentType":5126,"count":20,"max":[0.20443646609783173,0.0017827358096837997,0.04359904304146767,0.9997680187225342],"min":[-0.17688356339931488,-0.05216432735323906,-0.09877472370862961,0.9787944555282593],"type":"VEC4"},{"bufferView":34,"componentType":5126,"count":20,"max":[1.125],"min":[0],"type":"SCALAR"},{"bufferView":35,"componentType":5126,"count":20,"max":[0.08707278966903687,0.018741963431239128,0.08546548336744308,0.9998785853385925],"min":[-0.12128230184316635,-0.013809907250106335,-0.0871262401342392,0.989922285079956],"type":"VEC4"},{"bufferView":36,"componentType":5126,"count":19,"max":[1.0833333730697632],"min":[0],"type":"SCALAR"},{"bufferView":37,"componentType":5126,"count":19,"max":[0.2773946523666382,0.054822515696287155,0.004522292874753475,0.9997113347053528],"min":[-0.2498834878206253,-0.015463543124496937,-0.13056205213069916,0.9546477794647217],"type":"VEC4"},{"bufferView":38,"componentType":5126,"count":19,"max":[1.0833333730697632],"min":[0],"type":"SCALAR"},{"bufferView":39,"componentType":5126,"count":19,"max":[0.2754218578338623,0.053884200751781464,0.14999985694885254,0.9986811280250549],"min":[-0.21854358911514282,-0.020204834640026093,0.018832137808203697,0.952528715133667],"type":"VEC4"},{"bufferView":40,"componentType":5126,"count":16,"max":[1],"min":[0],"type":"SCALAR"},{"bufferView":41,"componentType":5126,"count":16,"max":[0.2164396196603775,0,0,1],"min":[-0.2164396196603775,0,0,0.9762960076332092],"type":"VEC4"},{"bufferView":42,"componentType":5126,"count":16,"max":[1],"min":[0],"type":"SCALAR"},{"bufferView":43,"componentType":5126,"count":16,"max":[0.2164396196603775,0,0,1],"min":[-0.2164396196603775,0,0,0.9762960076332092],"type":"VEC4"},{"bufferView":44,"componentType":5126,"count":46,"max":[2.5],"min":[0],"type":"SCALAR"},{"bufferView":45,"componentType":5126,"count":46,"max":[0.19662119448184967,0,0,1],"min":[-0.2981419265270233,0,0,0.9545215368270874],"type":"VEC4"},{"bufferView":46,"componentType":5126,"count":47,"max":[3.0416667461395264],"min":[0],"type":"SCALAR"},{"bufferView":47,"componentType":5126,"count":47,"max":[0.26458555459976196,0.1703115701675415,0.04127372056245804,1],"min":[-0.1736481785774231,-0.16867178678512573,-0.04127372056245804,0.9565852284431458],"type":"VEC4"},{"bufferView":48,"componentType":5126,"count":46,"max":[2.5],"min":[0],"type":"SCALAR"},{"bufferView":49,"componentType":5126,"count":46,"max":[0.8080541491508484,0,0,1],"min":[-0.4552803337574005,0,0,0.5891082286834717],"type":"VEC4"},{"bufferView":50,"componentType":5126,"count":46,"max":[2.5],"min":[0],"type":"SCALAR"},{"bufferView":51,"componentType":5126,"count":46,"max":[0.8080541491508484,0,0,1],"min":[-0.4552803337574005,0,0,0.5891082286834717],"type":"VEC4"},{"bufferView":52,"componentType":5126,"count":7,"max":[0.375],"min":[0],"type":"SCALAR"},{"bufferView":53,"componentType":5126,"count":7,"max":[0.14451763033866882,0.24696269631385803,0.07423505187034607,0.9999200105667114],"min":[-0.07935908436775208,-0.10255402326583862,-0.004894396755844355,0.9637655019760132],"type":"VEC4"},{"bufferView":54,"componentType":5126,"count":7,"max":[0.375],"min":[0],"type":"SCALAR"},{"bufferView":55,"componentType":5126,"count":7,"max":[0.49809736013412476,0.24722416698932648,0.11012300848960876,0.9998851418495178],"min":[-0.015043618157505989,-0.019895466044545174,-0.2605501711368561,0.862523078918457],"type":"VEC4"},{"bufferView":56,"componentType":5126,"count":39,"max":[2.25],"min":[0],"type":"SCALAR"},{"bufferView":57,"componentType":5126,"count":39,"max":[0.15212339162826538,0,0,1],"min":[-0.06540312618017197,0,0,0.9883615374565125],"type":"VEC4"},{"bufferView":58,"componentType":5126,"count":29,"max":[1.5833333730697632],"min":[0],"type":"SCALAR"},{"bufferView":59,"componentType":5126,"count":29,"max":[0,0.625,0.25],"min":[0,-2.5428669452667236,0.25],"type":"VEC3"},{"bufferView":60,"componentType":5126,"count":41,"max":[2.375],"min":[0],"type":"SCALAR"},{"bufferView":61,"componentType":5126,"count":41,"max":[0.15212339162826538,0,0,0.9999997019767761],"min":[-0.8686153888702393,0,0,0.4954869747161865],"type":"VEC4"},{"bufferView":62,"componentType":5126,"count":37,"max":[2.25],"min":[0],"type":"SCALAR"},{"bufferView":63,"componentType":5126,"count":37,"max":[0.641607403755188,0.03458757326006889,0.10886687785387039,0.9998112916946411],"min":[-0.06420526653528214,-0.008808795362710953,-0.025947896763682365,0.7665612697601318],"type":"VEC4"},{"bufferView":64,"componentType":5126,"count":42,"max":[2.25],"min":[0],"type":"SCALAR"},{"bufferView":65,"componentType":5126,"count":42,"max":[0.625,2.0625,-0.25],"min":[0.625,0.9033203125,-0.375],"type":"VEC3"},{"bufferView":66,"componentType":5126,"count":41,"max":[2.25],"min":[0],"type":"SCALAR"},{"bufferView":67,"componentType":5126,"count":41,"max":[0.7537488341331482,0.02129778452217579,0.004721605218946934,0.9998428821563721],"min":[-0.17360685765743256,-0.0011213179677724838,-0.0030236688908189535,0.6571609377861023],"type":"VEC4"},{"bufferView":68,"componentType":5126,"count":43,"max":[2.25],"min":[0],"type":"SCALAR"},{"bufferView":69,"componentType":5126,"count":43,"max":[-0.625,2.5,-0.24074074625968933],"min":[-0.625,1.0399999618530273,-0.375],"type":"VEC3"},{"bufferView":70,"componentType":5126,"count":26,"max":[1.5833333730697632],"min":[0],"type":"SCALAR"},{"bufferView":71,"componentType":5126,"count":26,"max":[-0.25,0.625,0.1875],"min":[-0.25,-2.5,0.1875],"type":"VEC3"},{"bufferView":72,"componentType":5126,"count":27,"max":[1.5833333730697632],"min":[0],"type":"SCALAR"},{"bufferView":73,"componentType":5126,"count":27,"max":[0.25,0.625,0.1875],"min":[0.25,-2.5,0.1875],"type":"VEC3"},{"bufferView":74,"componentType":5126,"count":17,"max":[1],"min":[0],"type":"SCALAR"},{"bufferView":75,"componentType":5126,"count":17,"max":[0,0.003909552935510874,0.0434534028172493,1],"min":[-0.08707278966903687,-0.0038965565618127584,-0.0434534028172493,0.9952465295791626],"type":"VEC4"},{"bufferView":76,"componentType":5126,"count":16,"max":[1],"min":[0],"type":"SCALAR"},{"bufferView":77,"componentType":5126,"count":16,"max":[0.08707278966903687,0.0038965565618127584,0.0434534028172493,1],"min":[0,-0.0038965565618127584,-0.0434534028172493,0.9952465295791626],"type":"VEC4"},{"bufferView":78,"componentType":5126,"count":17,"max":[1],"min":[0],"type":"SCALAR"},{"bufferView":79,"componentType":5126,"count":17,"max":[0.08715574443340302,0,0,1],"min":[0,0,0,0.9961947202682495],"type":"VEC4"},{"bufferView":80,"componentType":5126,"count":17,"max":[1],"min":[0],"type":"SCALAR"},{"bufferView":81,"componentType":5126,"count":17,"max":[0.08715574443340302,0,0,1],"min":[0,0,0,0.9961947202682495],"type":"VEC4"},{"bufferView":82,"componentType":5126,"count":16,"max":[1],"min":[0],"type":"SCALAR"},{"bufferView":83,"componentType":5126,"count":16,"max":[0.13052618503570557,0,0,1],"min":[-0.13052618503570557,0,0,0.9914448857307434],"type":"VEC4"},{"bufferView":84,"componentType":5126,"count":16,"max":[1],"min":[0],"type":"SCALAR"},{"bufferView":85,"componentType":5126,"count":16,"max":[0.13052618503570557,0,0,1],"min":[-0.13052618503570557,0,0,0.9914448857307434],"type":"VEC4"},{"bufferView":86,"componentType":5126,"count":57,"max":[3.5],"min":[0],"type":"SCALAR"},{"bufferView":87,"componentType":5126,"count":57,"max":[0,0,0,1],"min":[-0.04361938685178757,0,0,0.9990482330322266],"type":"VEC4"},{"bufferView":88,"componentType":5126,"count":58,"max":[3.5],"min":[0],"type":"SCALAR"},{"bufferView":89,"componentType":5126,"count":58,"max":[0,0,0,1],"min":[-0.08715574443340302,0,0,0.9961947202682495],"type":"VEC4"},{"bufferView":90,"componentType":5126,"count":57,"max":[3.5],"min":[0],"type":"SCALAR"},{"bufferView":91,"componentType":5126,"count":57,"max":[0.04361938685178757,0.00024311989545822144,0.00008451128815067932,1],"min":[0,-0.0032579400576651096,-0.0012521881144493818,0.9990482330322266],"type":"VEC4"},{"bufferView":92,"componentType":5126,"count":57,"max":[3.5],"min":[0],"type":"SCALAR"},{"bufferView":93,"componentType":5126,"count":57,"max":[0.04361938685178757,0,0,1],"min":[0,0,0,0.9990482330322266],"type":"VEC4"}],"materials":[{"pbrMetallicRoughness":{"metallicFactor":0,"roughnessFactor":1,"baseColorTexture":{"index":0}},"alphaMode":"MASK","alphaCutoff":0.05,"doubleSided":true}],"textures":[{"sampler":0,"source":0,"name":"Trypophobia"}],"samplers":[{"magFilter":9728,"minFilter":9728,"wrapS":33071,"wrapT":33071}],"images":[{"mimeType":"image/png","uri":"data:image/png;base64,"}],"meshes":[{"primitives":[{"mode":4,"attributes":{"POSITION":0,"NORMAL":1,"TEXCOORD_0":2},"indices":3,"material":0}]},{"primitives":[{"mode":4,"attributes":{"POSITION":4,"NORMAL":5,"TEXCOORD_0":6},"indices":7,"material":0}]},{"primitives":[{"mode":4,"attributes":{"POSITION":8,"NORMAL":9,"TEXCOORD_0":10},"indices":11,"material":0}]},{"primitives":[{"mode":4,"attributes":{"POSITION":12,"NORMAL":13,"TEXCOORD_0":14},"indices":15,"material":0}]},{"primitives":[{"mode":4,"attributes":{"POSITION":16,"NORMAL":17,"TEXCOORD_0":18},"indices":19,"material":0}]},{"primitives":[{"mode":4,"attributes":{"POSITION":20,"NORMAL":21,"TEXCOORD_0":22},"indices":23,"material":0}]},{"primitives":[{"mode":4,"attributes":{"POSITION":24,"NORMAL":25,"TEXCOORD_0":26},"indices":27,"material":0}]},{"primitives":[{"mode":4,"attributes":{"POSITION":28,"NORMAL":29,"TEXCOORD_0":30},"indices":31,"material":0}]}],"animations":[{"name":"animation.trypophobia.run","samplers":[{"input":32,"output":33,"interpolation":"LINEAR"},{"input":34,"output":35,"interpolation":"LINEAR"},{"input":36,"output":37,"interpolation":"LINEAR"},{"input":38,"output":39,"interpolation":"LINEAR"},{"input":40,"output":41,"interpolation":"LINEAR"},{"input":42,"output":43,"interpolation":"LINEAR"}],"channels":[{"sampler":0,"target":{"node":4,"path":"rotation"}},{"sampler":1,"target":{"node":9,"path":"rotation"}},{"sampler":2,"target":{"node":8,"path":"rotation"}},{"sampler":3,"target":{"node":6,"path":"rotation"}},{"sampler":4,"target":{"node":11,"path":"rotation"}},{"sampler":5,"target":{"node":13,"path":"rotation"}}]},{"name":"animation.trypophobia.roar","samplers":[{"input":44,"output":45,"interpolation":"LINEAR"},{"input":46,"output":47,"interpolation":"LINEAR"},{"input":48,"output":49,"interpolation":"LINEAR"},{"input":50,"output":51,"interpolation":"LINEAR"}],"channels":[{"sampler":0,"target":{"node":9,"path":"rotation"}},{"sampler":1,"target":{"node":4,"path":"rotation"}},{"sampler":2,"target":{"node":6,"path":"rotation"}},{"sampler":3,"target":{"node":8,"path":"rotation"}}]},{"name":"animation.trypophobia.attack","samplers":[{"input":52,"output":53,"interpolation":"LINEAR"},{"input":54,"output":55,"interpolation":"LINEAR"}],"channels":[{"sampler":0,"target":{"node":4,"path":"rotation"}},{"sampler":1,"target":{"node":6,"path":"rotation"}}]},{"name":"animation.trypophobia.emerge","samplers":[{"input":56,"output":57,"interpolation":"LINEAR"},{"input":58,"output":59,"interpolation":"LINEAR"},{"input":60,"output":61,"interpolation":"LINEAR"},{"input":62,"output":63,"interpolation":"LINEAR"},{"input":64,"output":65,"interpolation":"LINEAR"},{"input":66,"output":67,"interpolation":"LINEAR"},{"input":68,"output":69,"interpolation":"LINEAR"},{"input":70,"output":71,"interpolation":"LINEAR"},{"input":72,"output":73,"interpolation":"LINEAR"}],"channels":[{"sampler":0,"target":{"node":9,"path":"rotation"}},{"sampler":1,"target":{"node":9,"path":"translation"}},{"sampler":2,"target":{"node":4,"path":"rotation"}},{"sampler":3,"target":{"node":6,"path":"rotation"}},{"sampler":4,"target":{"node":6,"path":"translation"}},{"sampler":5,"target":{"node":8,"path":"rotation"}},{"sampler":6,"target":{"node":8,"path":"translation"}},{"sampler":7,"target":{"node":13,"path":"translation"}},{"sampler":8,"target":{"node":11,"path":"translation"}}]},{"name":"animation.trypophobia.walk","samplers":[{"input":74,"output":75,"interpolation":"LINEAR"},{"input":76,"output":77,"interpolation":"LINEAR"},{"input":78,"output":79,"interpolation":"LINEAR"},{"input":80,"output":81,"interpolation":"LINEAR"},{"input":82,"output":83,"interpolation":"LINEAR"},{"input":84,"output":85,"interpolation":"LINEAR"}],"channels":[{"sampler":0,"target":{"node":9,"path":"rotation"}},{"sampler":1,"target":{"node":4,"path":"rotation"}},{"sampler":2,"target":{"node":6,"path":"rotation"}},{"sampler":3,"target":{"node":8,"path":"rotation"}},{"sampler":4,"target":{"node":11,"path":"rotation"}},{"sampler":5,"target":{"node":13,"path":"rotation"}}]},{"name":"animation.trypophobia.idle","samplers":[{"input":86,"output":87,"interpolation":"LINEAR"},{"input":88,"output":89,"interpolation":"LINEAR"},{"input":90,"output":91,"interpolation":"LINEAR"},{"input":92,"output":93,"interpolation":"LINEAR"}],"channels":[{"sampler":0,"target":{"node":9,"path":"rotation"}},{"sampler":1,"target":{"node":4,"path":"rotation"}},{"sampler":2,"target":{"node":6,"path":"rotation"}},{"sampler":3,"target":{"node":8,"path":"rotation"}}]}]}