{"asset":{"version":"2.0","generator":"Blockbench 3.8.4 glTF exporter"},"scenes":[{"nodes":[2,4,7,10,12,14,31],"name":"blockbench_export"}],"scene":0,"nodes":[{"translation":[0,-0.0625,0],"name":"e90cc3d4-f09f-befe-ce78-848d20f7bddf","mesh":0},{"rotation":[-0.21643961393810288,0,0,0.9762960071199334],"translation":[0,0.8125,-0.375],"name":"b1135bbe-1d8b-ebf9-44ac-5f6ac458858d","mesh":1},{"name":"body","children":[0,1]},{"rotation":[0.3624380382837016,0,0,0.9320078692827986],"translation":[0,0.8125,0.4375],"name":"f87a1d3a-a062-b185-1b61-75d69c23e651","mesh":2},{"name":"mob_tail","children":[3]},{"translation":[-0.125,-0.5,0],"name":"a1c168e2-2e10-a1cf-254e-924d64f723c2","mesh":3},{"translation":[-0.140625,-0.140625,0.015625],"name":"e6cc89b5-a05e-0794-9d46-002849cbc8f6","mesh":4},{"translation":[-0.078125,0.5,0.375],"name":"left_leg2","children":[5,6]},{"translation":[0.125,-0.5,0],"name":"b83eedf5-a3b8-f14e-bd73-fff4546461c7","mesh":5},{"translation":[0.140625,-0.140625,0.015625],"name":"7f67d103-663d-297d-1cf9-d76b4d3de35d","mesh":6},{"translation":[0.078125,0.5,0.375],"name":"right_leg2","children":[8,9]},{"translation":[0.078125,-0.546875,0.40625],"name":"d4ac7a66-3fb6-96c7-8555-49ce8d60e3f9","mesh":7},{"translation":[-0.078125,0.546875,-0.40625],"name":"left_leg1","children":[11]},{"translation":[-0.078125,-0.546875,0.40625],"name":"2d61288e-19d4-ebdf-277a-78a830a119be","mesh":8},{"translation":[0.078125,0.546875,-0.40625],"name":"right_leg1","children":[13]},{"rotation":[-0.1469399075033863,-0.03937242955143623,0.25580678235535087,0.9546839086708834],"translation":[0.12652713950964095,-0.25579280699593987,0.07758133078933993],"name":"d917385f-3b0b-06a1-0b2e-f798077186f8","mesh":9},{"rotation":[-0.25767249814443716,-0.1015024659180902,0.5220441638704062,0.8067044217564451],"name":"df8a7712-4be3-dc20-ab44-b5a19b3caf13","mesh":10},{"rotation":[-0.38170429118632526,-0.27761230757225713,0.36881217514199627,0.8007564050579808],"translation":[-0.28726391941607266,0.06766520957221611,-0.14447162843103178],"name":"173346a6-3e91-fc16-8b03-9397a05b31c1","mesh":11},{"rotation":[-0.45607473518843494,-0.10833454657507537,0.45094122534831993,0.7595468867835135],"translation":[-0.25270274224398254,0.11596150088667012,-0.1374251091485189],"name":"246d2ca1-0623-bed4-2e02-e211f640da68","mesh":12},{"rotation":[-0.43384091046803824,-0.14891975122534234,0.21160478818368914,0.8630344058709258],"translation":[-0.25270274224398254,0.11596150088667012,-0.1374251091485189],"name":"ed03362d-0f7c-c4dd-c3c0-4c621de3f616","mesh":13},{"translation":[-0.18902713950964095,0.47454280699593987,-0.07758133078933993],"name":"horn_left","children":[15,16,17,18,19]},{"rotation":[-0.1469399075033863,0.03937242955143623,-0.25580678235535087,0.9546839086708834],"translation":[-0.12652713950964095,-0.25579280699593987,0.07758133078933993],"name":"a6ec3f35-79b4-00f8-5ea4-660df90419f4","mesh":14},{"rotation":[-0.45607473518843494,0.10833454657507537,-0.45094122534831993,0.7595468867835135],"translation":[0.25270274224398254,0.11596150088667012,-0.1374251091485189],"name":"8c0fbb30-80e3-4e60-5b80-97430e1ae14c","mesh":15},{"rotation":[-0.38170429118632526,0.27761230757225713,-0.36881217514199627,0.8007564050579808],"translation":[0.28726391941607266,0.06766520957221611,-0.14447162843103178],"name":"32859735-ac02-e20e-59f1-1e96b39b9d94","mesh":16},{"rotation":[-0.43384091046803824,0.14891975122534234,-0.21160478818368914,0.8630344058709258],"translation":[0.25270274224398254,0.11596150088667012,-0.1374251091485189],"name":"c49622be-fbf0-7bec-bfda-7105ba143e7b","mesh":17},{"rotation":[-0.25767249814443716,0.1015024659180902,-0.5220441638704062,0.8067044217564451],"name":"b6455274-41eb-f92f-99b2-a99cf67bf9db","mesh":18},{"translation":[0.18902713950964095,0.47454280699593987,-0.07758133078933993],"name":"horn_right","children":[21,22,23,24,25]},{"rotation":[-0.21643961393810288,0,0,0.9762960071199334],"translation":[0,-0.34375,0.15625],"name":"2fbbb892-cf67-b6c2-62dc-85f0ab37d374","mesh":19},{"rotation":[-0.21643961393810288,0,0,0.9762960071199334],"translation":[0,-0.34375,0.15625],"name":"637d86c6-dd76-00e1-9248-8f212a326d27","mesh":20},{"rotation":[-0.2077928198446223,0.06056608376554789,-0.27319594907476535,0.9372928394730556],"translation":[-0.15625,0.21875,0.0625],"name":"c7336a28-8c11-ddf7-c19a-23a3532a78c5","mesh":21},{"rotation":[-0.2077928198446223,-0.06056608376554789,0.27319594907476535,0.9372928394730556],"translation":[0.15625,0.21875,0.0625],"name":"1fd229b1-b3f0-887a-447a-b68254e75db5","mesh":22},{"translation":[0,1.15625,-0.53125],"name":"mob_head","children":[20,26,27,28,29,30]}],"bufferViews":[{"buffer":0,"byteOffset":0,"byteLength":432,"target":34962,"byteStride":12},{"buffer":0,"byteOffset":432,"byteLength":432,"target":34962,"byteStride":12},{"buffer":0,"byteOffset":864,"byteLength":288,"target":34962,"byteStride":8},{"buffer":0,"byteOffset":1152,"byteLength":432,"target":34962,"byteStride":12},{"buffer":0,"byteOffset":1584,"byteLength":432,"target":34962,"byteStride":12},{"buffer":0,"byteOffset":2016,"byteLength":288,"target":34962,"byteStride":8},{"buffer":0,"byteOffset":2304,"byteLength":432,"target":34962,"byteStride":12},{"buffer":0,"byteOffset":2736,"byteLength":432,"target":34962,"byteStride":12},{"buffer":0,"byteOffset":3168,"byteLength":288,"target":34962,"byteStride":8},{"buffer":0,"byteOffset":3456,"byteLength":432,"target":34962,"byteStride":12},{"buffer":0,"byteOffset":3888,"byteLength":432,"target":34962,"byteStride":12},{"buffer":0,"byteOffset":4320,"byteLength":288,"target":34962,"byteStride":8},{"buffer":0,"byteOffset":4608,"byteLength":432,"target":34962,"byteStride":12},{"buffer":0,"byteOffset":5040,"byteLength":432,"target":34962,"byteStride":12},{"buffer":0,"byteOffset":5472,"byteLength":288,"target":34962,"byteStride":8},{"buffer":0,"byteOffset":5760,"byteLength":432,"target":34962,"byteStride":12},{"buffer":0,"byteOffset":6192,"byteLength":432,"target":34962,"byteStride":12},{"buffer":0,"byteOffset":6624,"byteLength":288,"target":34962,"byteStride":8},{"buffer":0,"byteOffset":6912,"byteLength":432,"target":34962,"byteStride":12},{"buffer":0,"byteOffset":7344,"byteLength":432,"target":34962,"byteStride":12},{"buffer":0,"byteOffset":7776,"byteLength":288,"target":34962,"byteStride":8},{"buffer":0,"byteOffset":8064,"byteLength":432,"target":34962,"byteStride":12},{"buffer":0,"byteOffset":8496,"byteLength":432,"target":34962,"byteStride":12},{"buffer":0,"byteOffset":8928,"byteLength":288,"target":34962,"byteStride":8},{"buffer":0,"byteOffset":9216,"byteLength":432,"target":34962,"byteStride":12},{"buffer":0,"byteOffset":9648,"byteLength":432,"target":34962,"byteStride":12},{"buffer":0,"byteOffset":10080,"byteLength":288,"target":34962,"byteStride":8},{"buffer":0,"byteOffset":10368,"byteLength":432,"target":34962,"byteStride":12},{"buffer":0,"byteOffset":10800,"byteLength":432,"target":34962,"byteStride":12},{"buffer":0,"byteOffset":11232,"byteLength":288,"target":34962,"byteStride":8},{"buffer":0,"byteOffset":11520,"byteLength":432,"target":34962,"byteStride":12},{"buffer":0,"byteOffset":11952,"byteLength":432,"target":34962,"byteStride":12},{"buffer":0,"byteOffset":12384,"byteLength":288,"target":34962,"byteStride":8},{"buffer":0,"byteOffset":12672,"byteLength":432,"target":34962,"byteStride":12},{"buffer":0,"byteOffset":13104,"byteLength":432,"target":34962,"byteStride":12},{"buffer":0,"byteOffset":13536,"byteLength":288,"target":34962,"byteStride":8},{"buffer":0,"byteOffset":13824,"byteLength":432,"target":34962,"byteStride":12},{"buffer":0,"byteOffset":14256,"byteLength":432,"target":34962,"byteStride":12},{"buffer":0,"byteOffset":14688,"byteLength":288,"target":34962,"byteStride":8},{"buffer":0,"byteOffset":14976,"byteLength":432,"target":34962,"byteStride":12},{"buffer":0,"byteOffset":15408,"byteLength":432,"target":34962,"byteStride":12},{"buffer":0,"byteOffset":15840,"byteLength":288,"target":34962,"byteStride":8},{"buffer":0,"byteOffset":16128,"byteLength":432,"target":34962,"byteStride":12},{"buffer":0,"byteOffset":16560,"byteLength":432,"target":34962,"byteStride":12},{"buffer":0,"byteOffset":16992,"byteLength":288,"target":34962,"byteStride":8},{"buffer":0,"byteOffset":17280,"byteLength":432,"target":34962,"byteStride":12},{"buffer":0,"byteOffset":17712,"byteLength":432,"target":34962,"byteStride":12},{"buffer":0,"byteOffset":18144,"byteLength":288,"target":34962,"byteStride":8},{"buffer":0,"byteOffset":18432,"byteLength":432,"target":34962,"byteStride":12},{"buffer":0,"byteOffset":18864,"byteLength":432,"target":34962,"byteStride":12},{"buffer":0,"byteOffset":19296,"byteLength":288,"target":34962,"byteStride":8},{"buffer":0,"byteOffset":19584,"byteLength":432,"target":34962,"byteStride":12},{"buffer":0,"byteOffset":20016,"byteLength":432,"target":34962,"byteStride":12},{"buffer":0,"byteOffset":20448,"byteLength":288,"target":34962,"byteStride":8},{"buffer":0,"byteOffset":20736,"byteLength":432,"target":34962,"byteStride":12},{"buffer":0,"byteOffset":21168,"byteLength":432,"target":34962,"byteStride":12},{"buffer":0,"byteOffset":21600,"byteLength":288,"target":34962,"byteStride":8},{"buffer":0,"byteOffset":21888,"byteLength":432,"target":34962,"byteStride":12},{"buffer":0,"byteOffset":22320,"byteLength":432,"target":34962,"byteStride":12},{"buffer":0,"byteOffset":22752,"byteLength":288,"target":34962,"byteStride":8},{"buffer":0,"byteOffset":23040,"byteLength":432,"target":34962,"byteStride":12},{"buffer":0,"byteOffset":23472,"byteLength":432,"target":34962,"byteStride":12},{"buffer":0,"byteOffset":23904,"byteLength":288,"target":34962,"byteStride":8},{"buffer":0,"byteOffset":24192,"byteLength":432,"target":34962,"byteStride":12},{"buffer":0,"byteOffset":24624,"byteLength":432,"target":34962,"byteStride":12},{"buffer":0,"byteOffset":25056,"byteLength":288,"target":34962,"byteStride":8},{"buffer":0,"byteOffset":25344,"byteLength":432,"target":34962,"byteStride":12},{"buffer":0,"byteOffset":25776,"byteLength":432,"target":34962,"byteStride":12},{"buffer":0,"byteOffset":26208,"byteLength":288,"target":34962,"byteStride":8}],"buffers":[{"byteLength":26496,"uri":"data:application/octet-stream;base64,"}],"accessors":[{"bufferView":0,"componentType":5126,"count":36,"max":[0.1875,0.9375,0.5],"min":[-0.1875,0.5,-0.5],"type":"VEC3"},{"bufferView":1,"componentType":5126,"count":36,"max":[1,1,1],"min":[-1,-1,-1],"type":"VEC3"},{"bufferView":2,"componentType":5126,"count":36,"max":[0.687255859375,0.999755859375],"min":[0.000244140625,0.640869140625],"type":"VEC2"},{"bufferView":3,"componentType":5126,"count":36,"max":[0.125,0.375,0.125],"min":[-0.125,0,-0.125],"type":"VEC3"},{"bufferView":4,"componentType":5126,"count":36,"max":[1,1,1],"min":[-1,-1,-1],"type":"VEC3"},{"bufferView":5,"componentType":5126,"count":36,"max":[0.249755859375,0.999755859375],"min":[0.000244140625,0.843994140625],"type":"VEC2"},{"bufferView":6,"componentType":5126,"count":36,"max":[0.0625,0.0625,0.375],"min":[-0.0625,-0.0625,0],"type":"VEC3"},{"bufferView":7,"componentType":5126,"count":36,"max":[1,1,1],"min":[-1,-1,-1],"type":"VEC3"},{"bufferView":8,"componentType":5126,"count":36,"max":[0.593505859375,0.640380859375],"min":[0.343994140625,0.515869140625],"type":"VEC2"},{"bufferView":9,"componentType":5126,"count":36,"max":[0.125,0.375,0.125],"min":[0,0,0],"type":"VEC3"},{"bufferView":10,"componentType":5126,"count":36,"max":[1,1,1],"min":[-1,-1,-1],"type":"VEC3"},{"bufferView":11,"componentType":5126,"count":36,"max":[0.374755859375,0.406005859375],"min":[0.250244140625,0.281494140625],"type":"VEC2"},{"bufferView":12,"componentType":5126,"count":36,"max":[0.1875,0.25,0.125],"min":[0,0,-0.125],"type":"VEC3"},{"bufferView":13,"componentType":5126,"count":36,"max":[1,1,1],"min":[-1,-1,-1],"type":"VEC3"},{"bufferView":14,"componentType":5126,"count":36,"max":[0.656005859375,0.874755859375],"min":[0.437744140625,0.750244140625],"type":"VEC2"},{"bufferView":15,"componentType":5126,"count":36,"max":[0,0.375,0.125],"min":[-0.125,0,0],"type":"VEC3"},{"bufferView":16,"componentType":5126,"count":36,"max":[1,1,1],"min":[-1,-1,-1],"type":"VEC3"},{"bufferView":17,"componentType":5126,"count":36,"max":[0.249755859375,0.484130859375],"min":[0.125244140625,0.359619140625],"type":"VEC2"},{"bufferView":18,"componentType":5126,"count":36,"max":[0,0.25,0.125],"min":[-0.1875,0,-0.125],"type":"VEC3"},{"bufferView":19,"componentType":5126,"count":36,"max":[1,1,1],"min":[-1,-1,-1],"type":"VEC3"},{"bufferView":20,"componentType":5126,"count":36,"max":[0.656005859375,0.999755859375],"min":[0.437744140625,0.875244140625],"type":"VEC2"},{"bufferView":21,"componentType":5126,"count":36,"max":[-0.078125,0.625,-0.34375],"min":[-0.203125,0,-0.46875],"type":"VEC3"},{"bufferView":22,"componentType":5126,"count":36,"max":[1,1,1],"min":[-1,-1,-1],"type":"VEC3"},{"bufferView":23,"componentType":5126,"count":36,"max":[0.124755859375,0.484130859375],"min":[0.000244140625,0.297119140625],"type":"VEC2"},{"bufferView":24,"componentType":5126,"count":36,"max":[0.203125,0.625,-0.34375],"min":[0.078125,0,-0.46875],"type":"VEC3"},{"bufferView":25,"componentType":5126,"count":36,"max":[1,1,1],"min":[-1,-1,-1],"type":"VEC3"},{"bufferView":26,"componentType":5126,"count":36,"max":[0.624755859375,0.515380859375],"min":[0.500244140625,0.328369140625],"type":"VEC2"},{"bufferView":27,"componentType":5126,"count":36,"max":[0.03125,0.3125,0.03125],"min":[-0.03125,0,-0.03125],"type":"VEC3"},{"bufferView":28,"componentType":5126,"count":36,"max":[1,1,1],"min":[-1,-1,-1],"type":"VEC3"},{"bufferView":29,"componentType":5126,"count":36,"max":[0.687255859375,0.499755859375],"min":[0.625244140625,0.406494140625],"type":"VEC2"},{"bufferView":30,"componentType":5126,"count":36,"max":[0.013972322456538677,0.3248273432254791,0.023475373163819313],"min":[-0.04852767661213875,0.012327331118285656,-0.039024628698825836],"type":"VEC3"},{"bufferView":31,"componentType":5126,"count":36,"max":[1,1,1],"min":[-1,-1,-1],"type":"VEC3"},{"bufferView":32,"componentType":5126,"count":36,"max":[0.499755859375,0.406005859375],"min":[0.437744140625,0.312744140625],"type":"VEC2"},{"bufferView":33,"componentType":5126,"count":36,"max":[0.0630006343126297,0.31322935223579407,0.0004991156165488064],"min":[0.0005006312858313322,0.0007293400703929365,-0.06200088560581207],"type":"VEC3"},{"bufferView":34,"componentType":5126,"count":36,"max":[1,1,1],"min":[-1,-1,-1],"type":"VEC3"},{"bufferView":35,"componentType":5126,"count":36,"max":[0.656005859375,0.593505859375],"min":[0.593994140625,0.500244140625],"type":"VEC2"},{"bufferView":36,"componentType":5126,"count":36,"max":[0.26575782895088196,0.18598484992980957,-0.002632647752761841],"min":[0.015757830813527107,0.12348484992980957,-0.06513264775276184],"type":"VEC3"},{"bufferView":37,"componentType":5126,"count":36,"max":[1,1,1],"min":[-1,-1,-1],"type":"VEC3"},{"bufferView":38,"componentType":5126,"count":36,"max":[0.406005859375,0.640380859375],"min":[0.250244140625,0.609619140625],"type":"VEC2"},{"bufferView":39,"componentType":5126,"count":36,"max":[0.23763282597064972,0.06098484992980957,-0.002632647752761841],"min":[-0.012367168441414833,-0.0015151497209444642,-0.06513264775276184],"type":"VEC3"},{"bufferView":40,"componentType":5126,"count":36,"max":[1,1,1],"min":[-1,-1,-1],"type":"VEC3"},{"bufferView":41,"componentType":5126,"count":36,"max":[0.156005859375,0.781005859375],"min":[0.000244140625,0.750244140625],"type":"VEC2"},{"bufferView":42,"componentType":5126,"count":36,"max":[0.03125,0.3125,0.03125],"min":[-0.03125,0,-0.03125],"type":"VEC3"},{"bufferView":43,"componentType":5126,"count":36,"max":[1,1,1],"min":[-1,-1,-1],"type":"VEC3"},{"bufferView":44,"componentType":5126,"count":36,"max":[0.437255859375,0.406005859375],"min":[0.375244140625,0.312744140625],"type":"VEC2"},{"bufferView":45,"componentType":5126,"count":36,"max":[-0.015757830813527107,0.18598484992980957,-0.002632647752761841],"min":[-0.26575782895088196,0.12348484992980957,-0.06513264775276184],"type":"VEC3"},{"bufferView":46,"componentType":5126,"count":36,"max":[1,1,1],"min":[-1,-1,-1],"type":"VEC3"},{"bufferView":47,"componentType":5126,"count":36,"max":[0.156005859375,0.812255859375],"min":[0.000244140625,0.781494140625],"type":"VEC2"},{"bufferView":48,"componentType":5126,"count":36,"max":[-0.0005006312858313322,0.31322935223579407,0.0004991156165488064],"min":[-0.0630006343126297,0.0007293400703929365,-0.06200088560581207],"type":"VEC3"},{"bufferView":49,"componentType":5126,"count":36,"max":[1,1,1],"min":[-1,-1,-1],"type":"VEC3"},{"bufferView":50,"componentType":5126,"count":36,"max":[0.062255859375,0.640380859375],"min":[0.000244140625,0.547119140625],"type":"VEC2"},{"bufferView":51,"componentType":5126,"count":36,"max":[0.012367168441414833,0.06098484992980957,-0.002632647752761841],"min":[-0.23763282597064972,-0.0015151497209444642,-0.06513264775276184],"type":"VEC3"},{"bufferView":52,"componentType":5126,"count":36,"max":[1,1,1],"min":[-1,-1,-1],"type":"VEC3"},{"bufferView":53,"componentType":5126,"count":36,"max":[0.156005859375,0.843505859375],"min":[0.000244140625,0.812744140625],"type":"VEC2"},{"bufferView":54,"componentType":5126,"count":36,"max":[0.04852767661213875,0.3248273432254791,0.023475373163819313],"min":[-0.013972322456538677,0.012327331118285656,-0.039024628698825836],"type":"VEC3"},{"bufferView":55,"componentType":5126,"count":36,"max":[1,1,1],"min":[-1,-1,-1],"type":"VEC3"},{"bufferView":56,"componentType":5126,"count":36,"max":[0.218505859375,0.843505859375],"min":[0.156494140625,0.750244140625],"type":"VEC2"},{"bufferView":57,"componentType":5126,"count":36,"max":[0.15625,0.625,0.1875],"min":[-0.15625,0.375,-0.1875],"type":"VEC3"},{"bufferView":58,"componentType":5126,"count":36,"max":[1,1,1],"min":[-1,-1,-1],"type":"VEC3"},{"bufferView":59,"componentType":5126,"count":36,"max":[0.343505859375,0.640380859375],"min":[0.000244140625,0.484619140625],"type":"VEC2"},{"bufferView":60,"componentType":5126,"count":36,"max":[0.09375,0.5625,-0.1875],"min":[-0.09375,0.375,-0.4375],"type":"VEC3"},{"bufferView":61,"componentType":5126,"count":36,"max":[1,1,1],"min":[-1,-1,-1],"type":"VEC3"},{"bufferView":62,"componentType":5126,"count":36,"max":[0.499755859375,0.515380859375],"min":[0.281494140625,0.406494140625],"type":"VEC2"},{"bufferView":63,"componentType":5126,"count":36,"max":[0.046875,0.07558140903711319,0.01911858282983303],"min":[-0.140625,-0.04941859096288681,-0.04338141903281212],"type":"VEC3"},{"bufferView":64,"componentType":5126,"count":36,"max":[1,1,1],"min":[-1,-1,-1],"type":"VEC3"},{"bufferView":65,"componentType":5126,"count":36,"max":[0.624755859375,0.640380859375],"min":[0.500244140625,0.593994140625],"type":"VEC2"},{"bufferView":66,"componentType":5126,"count":36,"max":[0.140625,0.07558140903711319,0.01911858282983303],"min":[-0.046875,-0.04941859096288681,-0.04338141903281212],"type":"VEC3"},{"bufferView":67,"componentType":5126,"count":36,"max":[1,1,1],"min":[-1,-1,-1],"type":"VEC3"},{"bufferView":68,"componentType":5126,"count":36,"max":[0.374755859375,0.609130859375],"min":[0.250244140625,0.562744140625],"type":"VEC2"}],"materials":[{"pbrMetallicRoughness":{"metallicFactor":0,"roughnessFactor":1,"baseColorTexture":{"index":0}},"alphaMode":"MASK","alphaCutoff":0.05,"doubleSided":true,"name":"texture.png"}],"textures":[{"sampler":0,"source":0,"name":"texture.png"}],"samplers":[{"magFilter":9728,"minFilter":9728,"wrapS":33071,"wrapT":33071}],"images":[{"mimeType":"image/png","uri":"data:image/png;base64,"}],"meshes":[{"primitives":[{"mode":4,"attributes":{"POSITION":0,"NORMAL":1,"TEXCOORD_0":2},"material":0}]},{"primitives":[{"mode":4,"attributes":{"POSITION":3,"NORMAL":4,"TEXCOORD_0":5},"material":0}]},{"primitives":[{"mode":4,"attributes":{"POSITION":6,"NORMAL":7,"TEXCOORD_0":8},"material":0}]},{"primitives":[{"mode":4,"attributes":{"POSITION":9,"NORMAL":10,"TEXCOORD_0":11},"material":0}]},{"primitives":[{"mode":4,"attributes":{"POSITION":12,"NORMAL":13,"TEXCOORD_0":14},"material":0}]},{"primitives":[{"mode":4,"attributes":{"POSITION":15,"NORMAL":16,"TEXCOORD_0":17},"material":0}]},{"primitives":[{"mode":4,"attributes":{"POSITION":18,"NORMAL":19,"TEXCOORD_0":20},"material":0}]},{"primitives":[{"mode":4,"attributes":{"POSITION":21,"NORMAL":22,"TEXCOORD_0":23},"material":0}]},{"primitives":[{"mode":4,"attributes":{"POSITION":24,"NORMAL":25,"TEXCOORD_0":26},"material":0}]},{"primitives":[{"mode":4,"attributes":{"POSITION":27,"NORMAL":28,"TEXCOORD_0":29},"material":0}]},{"primitives":[{"mode":4,"attributes":{"POSITION":30,"NORMAL":31,"TEXCOORD_0":32},"material":0}]},{"primitives":[{"mode":4,"attributes":{"POSITION":33,"NORMAL":34,"TEXCOORD_0":35},"material":0}]},{"primitives":[{"mode":4,"attributes":{"POSITION":36,"NORMAL":37,"TEXCOORD_0":38},"material":0}]},{"primitives":[{"mode":4,"attributes":{"POSITION":39,"NORMAL":40,"TEXCOORD_0":41},"material":0}]},{"primitives":[{"mode":4,"attributes":{"POSITION":42,"NORMAL":43,"TEXCOORD_0":44},"material":0}]},{"primitives":[{"mode":4,"attributes":{"POSITION":45,"NORMAL":46,"TEXCOORD_0":47},"material":0}]},{"primitives":[{"mode":4,"attributes":{"POSITION":48,"NORMAL":49,"TEXCOORD_0":50},"material":0}]},{"primitives":[{"mode":4,"attributes":{"POSITION":51,"NORMAL":52,"TEXCOORD_0":53},"material":0}]},{"primitives":[{"mode":4,"attributes":{"POSITION":54,"NORMAL":55,"TEXCOORD_0":56},"material":0}]},{"primitives":[{"mode":4,"attributes":{"POSITION":57,"NORMAL":58,"TEXCOORD_0":59},"material":0}]},{"primitives":[{"mode":4,"attributes":{"POSITION":60,"NORMAL":61,"TEXCOORD_0":62},"material":0}]},{"primitives":[{"mode":4,"attributes":{"POSITION":63,"NORMAL":64,"TEXCOORD_0":65},"material":0}]},{"primitives":[{"mode":4,"attributes":{"POSITION":66,"NORMAL":67,"TEXCOORD_0":68},"material":0}]}]}