{"asset":{"version":"2.0","generator":"Blockbench 3.9.3 glTF exporter"},"scenes":[{"nodes":[28],"name":"blockbench_export"}],"scene":0,"nodes":[{"translation":[0,-0.75,-0.375],"name":"cb0c8afc-cb3d-bb2c-a0f6-ea9f37436faf","mesh":0},{"translation":[0.03749999999999998,-0.875,-0.375],"name":"76a3ba2f-3e2c-7809-0554-d973b8ae8d55","mesh":1},{"translation":[0,0.75,0.5625],"name":"LEG3","children":[0,1]},{"translation":[0,-0.75,-0.375],"name":"2da7a448-6d7d-2a03-17f9-a05cff05c62a","mesh":2},{"translation":[-0.03749999999999998,-0.875,-0.375],"name":"4fe0cbce-866a-ee32-c9f1-8d37653af091","mesh":3},{"translation":[0,0.75,0.5625],"name":"LEG4","children":[3,4]},{"translation":[0,-0.5625,0.4375],"name":"b805c99d-eb07-a00f-b0c0-ab8aab991869","mesh":4},{"translation":[0,-0.1875,-1],"name":"LEG1","children":[6]},{"translation":[0,-0.5625,0.4375],"name":"3004f323-3776-7241-4b14-c81ed839c640","mesh":5},{"translation":[0,-0.1875,-1],"name":"LEG2","children":[8]},{"translation":[0.21875,-1.5,-0.65625],"name":"1cd7b7f9-fb4f-86b2-dcfe-cf90dafce69e","mesh":6},{"translation":[0,0,0.3125],"name":"b8b65c17-6cbc-abcc-97dc-ebf1c24f1e64","mesh":7},{"rotation":[0.27982901403099203,0,0,0.9600498543859287],"translation":[0,0.5,0.3125],"name":"TAIL","children":[10,11]},{"translation":[0.09375,0.22358635864120346,0.11914423668979057],"name":"9b63c879-4690-a436-a2de-33f58020b3b8","mesh":8},{"translation":[0,0.6341923433727206,-0.3543493599656713],"name":"JAW","children":[13]},{"translation":[0,-1.3297212979860737,0.9522948767241196],"name":"dc638461-8074-e52f-0ffc-7a0d87b513a8","mesh":9},{"translation":[0.15625,-1.3658076566272799,0.9581506400343289],"name":"ed810ff1-065c-5084-0604-c077456e700b","mesh":10},{"translation":[0,-1.3297212979860737,0.9522948767241196],"name":"fb93da1b-48df-d099-b4e9-3380acd0aebf","mesh":11},{"translation":[0,-1.3297212979860737,0.9522948767241196],"name":"db7ff968-2073-4dc5-9ab4-60ab3d03139b","mesh":12},{"translation":[0,-0.8345576566272803,0.9581506400343289],"name":"eb17e3c8-37d9-79d6-bf1f-1ebea7bc7a14","mesh":13},{"translation":[-0.15625,0.9466923433727175,0.27065064003432915],"name":"af29977f-2fa6-c02c-04ef-3eccec850252","mesh":14},{"translation":[0.15625,0.9466923433727175,0.27065064003432915],"name":"adaff168-314c-2b82-f8b0-ba9bc4ee636f","mesh":15},{"translation":[0.09375,0.857778702013924,-0.23520512327588072],"name":"949e7bfc-ba89-d39a-2201-bed3740c05ae","mesh":16},{"rotation":[-0.25881904510252074,0,0,0.9659258262890683],"translation":[0,0.25,-1],"name":"HEAD","children":[14,15,16,17,18,19,20,21,22]},{"translation":[0,-0.75,-0.5625],"name":"ecc4b04c-b546-6feb-cb0a-a0930cbbebdd","mesh":17},{"translation":[0,-0.75,-0.5625],"name":"4512d0ce-efea-36cf-eaf5-d9d576766ff1","mesh":18},{"translation":[0,-0.75,-0.5625],"name":"f5737f2c-9cd4-76ee-aed9-2975f793afb6","mesh":19},{"translation":[0,0.75,0.5625],"name":"CHEST","children":[7,9,12,23,24,25,26]},{"translation":[0,0.25,0],"name":"BODY","children":[2,5,27]}],"bufferViews":[{"buffer":0,"byteOffset":0,"byteLength":432,"target":34962,"byteStride":12},{"buffer":0,"byteOffset":432,"byteLength":432,"target":34962,"byteStride":12},{"buffer":0,"byteOffset":864,"byteLength":288,"target":34962,"byteStride":8},{"buffer":0,"byteOffset":1152,"byteLength":432,"target":34962,"byteStride":12},{"buffer":0,"byteOffset":1584,"byteLength":432,"target":34962,"byteStride":12},{"buffer":0,"byteOffset":2016,"byteLength":288,"target":34962,"byteStride":8},{"buffer":0,"byteOffset":2304,"byteLength":432,"target":34962,"byteStride":12},{"buffer":0,"byteOffset":2736,"byteLength":432,"target":34962,"byteStride":12},{"buffer":0,"byteOffset":3168,"byteLength":288,"target":34962,"byteStride":8},{"buffer":0,"byteOffset":3456,"byteLength":432,"target":34962,"byteStride":12},{"buffer":0,"byteOffset":3888,"byteLength":432,"target":34962,"byteStride":12},{"buffer":0,"byteOffset":4320,"byteLength":288,"target":34962,"byteStride":8},{"buffer":0,"byteOffset":4608,"byteLength":432,"target":34962,"byteStride":12},{"buffer":0,"byteOffset":5040,"byteLength":432,"target":34962,"byteStride":12},{"buffer":0,"byteOffset":5472,"byteLength":288,"target":34962,"byteStride":8},{"buffer":0,"byteOffset":5760,"byteLength":432,"target":34962,"byteStride":12},{"buffer":0,"byteOffset":6192,"byteLength":432,"target":34962,"byteStride":12},{"buffer":0,"byteOffset":6624,"byteLength":288,"target":34962,"byteStride":8},{"buffer":0,"byteOffset":6912,"byteLength":432,"target":34962,"byteStride":12},{"buffer":0,"byteOffset":7344,"byteLength":432,"target":34962,"byteStride":12},{"buffer":0,"byteOffset":7776,"byteLength":288,"target":34962,"byteStride":8},{"buffer":0,"byteOffset":8064,"byteLength":432,"target":34962,"byteStride":12},{"buffer":0,"byteOffset":8496,"byteLength":432,"target":34962,"byteStride":12},{"buffer":0,"byteOffset":8928,"byteLength":288,"target":34962,"byteStride":8},{"buffer":0,"byteOffset":9216,"byteLength":432,"target":34962,"byteStride":12},{"buffer":0,"byteOffset":9648,"byteLength":432,"target":34962,"byteStride":12},{"buffer":0,"byteOffset":10080,"byteLength":288,"target":34962,"byteStride":8},{"buffer":0,"byteOffset":10368,"byteLength":432,"target":34962,"byteStride":12},{"buffer":0,"byteOffset":10800,"byteLength":432,"target":34962,"byteStride":12},{"buffer":0,"byteOffset":11232,"byteLength":288,"target":34962,"byteStride":8},{"buffer":0,"byteOffset":11520,"byteLength":432,"target":34962,"byteStride":12},{"buffer":0,"byteOffset":11952,"byteLength":432,"target":34962,"byteStride":12},{"buffer":0,"byteOffset":12384,"byteLength":288,"target":34962,"byteStride":8},{"buffer":0,"byteOffset":12672,"byteLength":432,"target":34962,"byteStride":12},{"buffer":0,"byteOffset":13104,"byteLength":432,"target":34962,"byteStride":12},{"buffer":0,"byteOffset":13536,"byteLength":288,"target":34962,"byteStride":8},{"buffer":0,"byteOffset":13824,"byteLength":432,"target":34962,"byteStride":12},{"buffer":0,"byteOffset":14256,"byteLength":432,"target":34962,"byteStride":12},{"buffer":0,"byteOffset":14688,"byteLength":288,"target":34962,"byteStride":8},{"buffer":0,"byteOffset":14976,"byteLength":432,"target":34962,"byteStride":12},{"buffer":0,"byteOffset":15408,"byteLength":432,"target":34962,"byteStride":12},{"buffer":0,"byteOffset":15840,"byteLength":288,"target":34962,"byteStride":8},{"buffer":0,"byteOffset":16128,"byteLength":432,"target":34962,"byteStride":12},{"buffer":0,"byteOffset":16560,"byteLength":432,"target":34962,"byteStride":12},{"buffer":0,"byteOffset":16992,"byteLength":288,"target":34962,"byteStride":8},{"buffer":0,"byteOffset":17280,"byteLength":432,"target":34962,"byteStride":12},{"buffer":0,"byteOffset":17712,"byteLength":432,"target":34962,"byteStride":12},{"buffer":0,"byteOffset":18144,"byteLength":288,"target":34962,"byteStride":8},{"buffer":0,"byteOffset":18432,"byteLength":432,"target":34962,"byteStride":12},{"buffer":0,"byteOffset":18864,"byteLength":432,"target":34962,"byteStride":12},{"buffer":0,"byteOffset":19296,"byteLength":288,"target":34962,"byteStride":8},{"buffer":0,"byteOffset":19584,"byteLength":432,"target":34962,"byteStride":12},{"buffer":0,"byteOffset":20016,"byteLength":432,"target":34962,"byteStride":12},{"buffer":0,"byteOffset":20448,"byteLength":288,"target":34962,"byteStride":8},{"buffer":0,"byteOffset":20736,"byteLength":432,"target":34962,"byteStride":12},{"buffer":0,"byteOffset":21168,"byteLength":432,"target":34962,"byteStride":12},{"buffer":0,"byteOffset":21600,"byteLength":288,"target":34962,"byteStride":8},{"buffer":0,"byteOffset":21888,"byteLength":432,"target":34962,"byteStride":12},{"buffer":0,"byteOffset":22320,"byteLength":432,"target":34962,"byteStride":12},{"buffer":0,"byteOffset":22752,"byteLength":288,"target":34962,"byteStride":8}],"buffers":[{"byteLength":23040,"uri":"data:application/octet-stream;base64,"}],"accessors":[{"bufferView":0,"componentType":5126,"count":36,"max":[-0.02500000037252903,0.9375,0.75],"min":[-0.3375000059604645,0.375,0.375],"type":"VEC3"},{"bufferView":1,"componentType":5126,"count":36,"max":[1,1,1],"min":[-1,-1,-1],"type":"VEC3"},{"bufferView":2,"componentType":5126,"count":36,"max":[0.1717529296875,0.9998779296875],"min":[0.0001220703125,0.8829345703125],"type":"VEC2"},{"bufferView":3,"componentType":5126,"count":36,"max":[-0.125,0.625,0.75],"min":[-0.375,-0.125,0.4375],"type":"VEC3"},{"bufferView":4,"componentType":5126,"count":36,"max":[1,1,1],"min":[-1,-1,-1],"type":"VEC3"},{"bufferView":5,"componentType":5126,"count":36,"max":[0.1405029296875,0.7342529296875],"min":[0.0001220703125,0.6016845703125],"type":"VEC2"},{"bufferView":6,"componentType":5126,"count":36,"max":[0.3375000059604645,0.9375,0.75],"min":[0.02500000037252903,0.375,0.375],"type":"VEC3"},{"bufferView":7,"componentType":5126,"count":36,"max":[1,1,1],"min":[-1,-1,-1],"type":"VEC3"},{"bufferView":8,"componentType":5126,"count":36,"max":[0.1717529296875,0.9998779296875],"min":[0.0001220703125,0.8829345703125],"type":"VEC2"},{"bufferView":9,"componentType":5126,"count":36,"max":[0.375,0.625,0.75],"min":[0.125,-0.125,0.4375],"type":"VEC3"},{"bufferView":10,"componentType":5126,"count":36,"max":[1,1,1],"min":[-1,-1,-1],"type":"VEC3"},{"bufferView":11,"componentType":5126,"count":36,"max":[0.1405029296875,0.7342529296875],"min":[0.0001220703125,0.6016845703125],"type":"VEC2"},{"bufferView":12,"componentType":5126,"count":36,"max":[-0.0625,0.5625,-0.3125],"min":[-0.3125,-0.25,-0.5625],"type":"VEC3"},{"bufferView":13,"componentType":5126,"count":36,"max":[1,1,1],"min":[-1,-1,-1],"type":"VEC3"},{"bufferView":14,"componentType":5126,"count":36,"max":[0.6326904296875,0.7030029296875],"min":[0.5079345703125,0.5704345703125],"type":"VEC2"},{"bufferView":15,"componentType":5126,"count":36,"max":[0.3125,0.5625,-0.3125],"min":[0.0625,-0.25,-0.5625],"type":"VEC3"},{"bufferView":16,"componentType":5126,"count":36,"max":[1,1,1],"min":[-1,-1,-1],"type":"VEC3"},{"bufferView":17,"componentType":5126,"count":36,"max":[0.6326904296875,0.7030029296875],"min":[0.5079345703125,0.5704345703125],"type":"VEC2"},{"bufferView":18,"componentType":5126,"count":36,"max":[-0.15625,1.5,1.09375],"min":[-0.28125,1.375,0.65625],"type":"VEC3"},{"bufferView":19,"componentType":5126,"count":36,"max":[1,1,1],"min":[-1,-1,-1],"type":"VEC3"},{"bufferView":20,"componentType":5126,"count":36,"max":[0.6561279296875,0.8748779296875],"min":[0.5157470703125,0.8048095703125],"type":"VEC2"},{"bufferView":21,"componentType":5126,"count":36,"max":[0.125,0,0.5],"min":[-0.125,-0.25,0],"type":"VEC3"},{"bufferView":22,"componentType":5126,"count":36,"max":[1,1,1],"min":[-1,-1,-1],"type":"VEC3"},{"bufferView":23,"componentType":5126,"count":36,"max":[0.5076904296875,0.7030029296875],"min":[0.3204345703125,0.6094970703125],"type":"VEC2"},{"bufferView":24,"componentType":5126,"count":36,"max":[0.03125,-0.22358636558055878,-0.11914423853158951],"min":[-0.21875,-0.2860863506793976,-0.3691442310810089],"type":"VEC3"},{"bufferView":25,"componentType":5126,"count":36,"max":[1,1,1],"min":[-1,-1,-1],"type":"VEC3"},{"bufferView":26,"componentType":5126,"count":36,"max":[0.1248779296875,0.8826904296875],"min":[0.0001220703125,0.8438720703125],"type":"VEC2"},{"bufferView":27,"componentType":5126,"count":36,"max":[0.15625,1.9014136791229248,-0.6816442608833313],"min":[-0.15625,1.0264136791229248,-1.1816442012786865],"type":"VEC3"},{"bufferView":28,"componentType":5126,"count":36,"max":[1,1,1],"min":[-1,-1,-1],"type":"VEC3"},{"bufferView":29,"componentType":5126,"count":36,"max":[0.2030029296875,0.4764404296875],"min":[0.0001220703125,0.3048095703125],"type":"VEC2"},{"bufferView":30,"componentType":5126,"count":36,"max":[-0.156187504529953,1.9375,-1.1875],"min":[-0.15625,1.3125,-1.4375],"type":"VEC3"},{"bufferView":31,"componentType":5126,"count":36,"max":[1,1,1],"min":[-1,-1,-1],"type":"VEC3"},{"bufferView":32,"componentType":5126,"count":36,"max":[0.3282470703125,0.4295654296875],"min":[0.2657470703125,0.3204345703125],"type":"VEC2"},{"bufferView":33,"componentType":5126,"count":36,"max":[0.0000625000029685907,2.213913679122925,-0.4316442310810089],"min":[0,1.2139136791229248,-0.6816442608833313],"type":"VEC3"},{"bufferView":34,"componentType":5126,"count":36,"max":[1,1,1],"min":[-1,-1,-1],"type":"VEC3"},{"bufferView":35,"componentType":5126,"count":36,"max":[0.2657470703125,0.5076904296875],"min":[0.2032470703125,0.3516845703125],"type":"VEC2"},{"bufferView":36,"componentType":5126,"count":36,"max":[0.21875,2.307663679122925,-0.6566442251205444],"min":[-0.21875,1.3701636791229248,-1.2191442251205444],"type":"VEC3"},{"bufferView":37,"componentType":5126,"count":36,"max":[1,1,1],"min":[-1,-1,-1],"type":"VEC3"},{"bufferView":38,"componentType":5126,"count":36,"max":[0.6483154296875,0.5467529296875],"min":[0.3985595703125,0.3594970703125],"type":"VEC2"},{"bufferView":39,"componentType":5126,"count":36,"max":[0.1875,1.78125,-0.6875],"min":[-0.1875,1.40625,-1.3125],"type":"VEC3"},{"bufferView":40,"componentType":5126,"count":36,"max":[1,1,1],"min":[-1,-1,-1],"type":"VEC3"},{"bufferView":41,"componentType":5126,"count":36,"max":[0.5858154296875,0.9998779296875],"min":[0.3360595703125,0.8751220703125],"type":"VEC2"},{"bufferView":42,"componentType":5126,"count":36,"max":[0.125,0.3125,0],"min":[0,-0.0625,-0.125],"type":"VEC3"},{"bufferView":43,"componentType":5126,"count":36,"max":[1,1,1],"min":[-1,-1,-1],"type":"VEC3"},{"bufferView":44,"componentType":5126,"count":36,"max":[0.3826904296875,0.7030029296875],"min":[0.3204345703125,0.6407470703125],"type":"VEC2"},{"bufferView":45,"componentType":5126,"count":36,"max":[0,0.3125,0],"min":[-0.125,-0.0625,-0.125],"type":"VEC3"},{"bufferView":46,"componentType":5126,"count":36,"max":[1,1,1],"min":[-1,-1,-1],"type":"VEC3"},{"bufferView":47,"componentType":5126,"count":36,"max":[0.3826904296875,0.7030029296875],"min":[0.3204345703125,0.6407470703125],"type":"VEC2"},{"bufferView":48,"componentType":5126,"count":36,"max":[0.03125,0.02641364187002182,-0.11914423853158951],"min":[-0.21875,-0.22358636558055878,-0.4316442310810089],"type":"VEC3"},{"bufferView":49,"componentType":5126,"count":36,"max":[1,1,1],"min":[-1,-1,-1],"type":"VEC3"},{"bufferView":50,"componentType":5126,"count":36,"max":[0.6483154296875,0.9998779296875],"min":[0.5079345703125,0.9298095703125],"type":"VEC2"},{"bufferView":51,"componentType":5126,"count":36,"max":[0.0000625000029685907,0.5625,0.6875],"min":[0,0.3125,-0.5625],"type":"VEC3"},{"bufferView":52,"componentType":5126,"count":36,"max":[1,1,1],"min":[-1,-1,-1],"type":"VEC3"},{"bufferView":53,"componentType":5126,"count":36,"max":[0.6329345703125,0.8905029296875],"min":[0.3204345703125,0.7032470703125],"type":"VEC2"},{"bufferView":54,"componentType":5126,"count":36,"max":[0.3125,1.25,0.875],"min":[-0.3125,0.5625,-0.5625],"type":"VEC3"},{"bufferView":55,"componentType":5126,"count":36,"max":[1,1,1],"min":[-1,-1,-1],"type":"VEC3"},{"bufferView":56,"componentType":5126,"count":36,"max":[0.5155029296875,0.9998779296875],"min":[0.0001220703125,0.7344970703125],"type":"VEC2"},{"bufferView":57,"componentType":5126,"count":36,"max":[0.34375,1.2625000476837158,0.5625],"min":[-0.34375,0.38749998807907104,-0.625],"type":"VEC3"},{"bufferView":58,"componentType":5126,"count":36,"max":[1,1,1],"min":[-1,-1,-1],"type":"VEC3"},{"bufferView":59,"componentType":5126,"count":36,"max":[0.4686279296875,0.7342529296875],"min":[0.0001220703125,0.4766845703125],"type":"VEC2"}],"materials":[{"pbrMetallicRoughness":{"metallicFactor":0,"roughnessFactor":1,"baseColorTexture":{"index":0}},"alphaMode":"MASK","alphaCutoff":0.05,"doubleSided":true}],"textures":[{"sampler":0,"source":0,"name":"horseArmorTexture.png"}],"samplers":[{"magFilter":9728,"minFilter":9728,"wrapS":33071,"wrapT":33071}],"images":[{"mimeType":"image/png","uri":"data:image/png;base64,"}],"meshes":[{"primitives":[{"mode":4,"attributes":{"POSITION":0,"NORMAL":1,"TEXCOORD_0":2},"material":0}]},{"primitives":[{"mode":4,"attributes":{"POSITION":3,"NORMAL":4,"TEXCOORD_0":5},"material":0}]},{"primitives":[{"mode":4,"attributes":{"POSITION":6,"NORMAL":7,"TEXCOORD_0":8},"material":0}]},{"primitives":[{"mode":4,"attributes":{"POSITION":9,"NORMAL":10,"TEXCOORD_0":11},"material":0}]},{"primitives":[{"mode":4,"attributes":{"POSITION":12,"NORMAL":13,"TEXCOORD_0":14},"material":0}]},{"primitives":[{"mode":4,"attributes":{"POSITION":15,"NORMAL":16,"TEXCOORD_0":17},"material":0}]},{"primitives":[{"mode":4,"attributes":{"POSITION":18,"NORMAL":19,"TEXCOORD_0":20},"material":0}]},{"primitives":[{"mode":4,"attributes":{"POSITION":21,"NORMAL":22,"TEXCOORD_0":23},"material":0}]},{"primitives":[{"mode":4,"attributes":{"POSITION":24,"NORMAL":25,"TEXCOORD_0":26},"material":0}]},{"primitives":[{"mode":4,"attributes":{"POSITION":27,"NORMAL":28,"TEXCOORD_0":29},"material":0}]},{"primitives":[{"mode":4,"attributes":{"POSITION":30,"NORMAL":31,"TEXCOORD_0":32},"material":0}]},{"primitives":[{"mode":4,"attributes":{"POSITION":33,"NORMAL":34,"TEXCOORD_0":35},"material":0}]},{"primitives":[{"mode":4,"attributes":{"POSITION":36,"NORMAL":37,"TEXCOORD_0":38},"material":0}]},{"primitives":[{"mode":4,"attributes":{"POSITION":39,"NORMAL":40,"TEXCOORD_0":41},"material":0}]},{"primitives":[{"mode":4,"attributes":{"POSITION":42,"NORMAL":43,"TEXCOORD_0":44},"material":0}]},{"primitives":[{"mode":4,"attributes":{"POSITION":45,"NORMAL":46,"TEXCOORD_0":47},"material":0}]},{"primitives":[{"mode":4,"attributes":{"POSITION":48,"NORMAL":49,"TEXCOORD_0":50},"material":0}]},{"primitives":[{"mode":4,"attributes":{"POSITION":51,"NORMAL":52,"TEXCOORD_0":53},"material":0}]},{"primitives":[{"mode":4,"attributes":{"POSITION":54,"NORMAL":55,"TEXCOORD_0":56},"material":0}]},{"primitives":[{"mode":4,"attributes":{"POSITION":57,"NORMAL":58,"TEXCOORD_0":59},"material":0}]}]}