{"asset":{"version":"2.0","generator":"Blockbench 4.6.4 glTF exporter"},"scenes":[{"nodes":[9],"name":"blockbench_export"}],"scene":0,"nodes":[{"translation":[0,-0.00625,0],"name":"cube","mesh":0},{"translation":[0,0.0031250000000000028,0],"name":"body","children":[0]},{"translation":[0,-0.00625,0],"name":"cube","mesh":1},{"translation":[0,0.0031250000000000028,0],"name":"olive","children":[2]},{"rotation":[0,-0.7071067811865475,0,0.7071067811865476],"translation":[0,-0.00625,0],"name":"cube","mesh":2},{"translation":[0,-0.00625,0],"name":"cube","mesh":3},{"translation":[0,-0.00625,0],"name":"cube","mesh":4},{"rotation":[0,-0.7071067811865475,0,0.7071067811865476],"translation":[0,-0.00625,0],"name":"cube","mesh":5},{"translation":[0,0.009375000000000003,0],"name":"Leafs","children":[4,5,6,7]},{"children":[1,3,8]}],"bufferViews":[{"buffer":0,"byteOffset":0,"byteLength":288,"target":34962,"byteStride":12},{"buffer":0,"byteOffset":288,"byteLength":288,"target":34962,"byteStride":12},{"buffer":0,"byteOffset":576,"byteLength":192,"target":34962,"byteStride":8},{"buffer":0,"byteOffset":768,"byteLength":72,"target":34963},{"buffer":0,"byteOffset":840,"byteLength":288,"target":34962,"byteStride":12},{"buffer":0,"byteOffset":1128,"byteLength":288,"target":34962,"byteStride":12},{"buffer":0,"byteOffset":1416,"byteLength":192,"target":34962,"byteStride":8},{"buffer":0,"byteOffset":1608,"byteLength":72,"target":34963},{"buffer":0,"byteOffset":1680,"byteLength":288,"target":34962,"byteStride":12},{"buffer":0,"byteOffset":1968,"byteLength":288,"target":34962,"byteStride":12},{"buffer":0,"byteOffset":2256,"byteLength":192,"target":34962,"byteStride":8},{"buffer":0,"byteOffset":2448,"byteLength":72,"target":34963},{"buffer":0,"byteOffset":2520,"byteLength":288,"target":34962,"byteStride":12},{"buffer":0,"byteOffset":2808,"byteLength":288,"target":34962,"byteStride":12},{"buffer":0,"byteOffset":3096,"byteLength":192,"target":34962,"byteStride":8},{"buffer":0,"byteOffset":3288,"byteLength":72,"target":34963},{"buffer":0,"byteOffset":3360,"byteLength":288,"target":34962,"byteStride":12},{"buffer":0,"byteOffset":3648,"byteLength":288,"target":34962,"byteStride":12},{"buffer":0,"byteOffset":3936,"byteLength":192,"target":34962,"byteStride":8},{"buffer":0,"byteOffset":4128,"byteLength":72,"target":34963},{"buffer":0,"byteOffset":4200,"byteLength":288,"target":34962,"byteStride":12},{"buffer":0,"byteOffset":4488,"byteLength":288,"target":34962,"byteStride":12},{"buffer":0,"byteOffset":4776,"byteLength":192,"target":34962,"byteStride":8},{"buffer":0,"byteOffset":4968,"byteLength":72,"target":34963},{"buffer":0,"byteOffset":5040,"byteLength":8},{"buffer":0,"byteOffset":5048,"byteLength":24},{"buffer":0,"byteOffset":5072,"byteLength":20},{"buffer":0,"byteOffset":5092,"byteLength":60},{"buffer":0,"byteOffset":5152,"byteLength":20},{"buffer":0,"byteOffset":5172,"byteLength":60},{"buffer":0,"byteOffset":5232,"byteLength":20},{"buffer":0,"byteOffset":5252,"byteLength":60}],"buffers":[{"byteLength":5312,"uri":"data:application/octet-stream;base64,"}],"accessors":[{"bufferView":0,"componentType":5126,"count":24,"max":[0.0625,0.15937499701976776,-0.3125],"min":[-0.0625,0.0031250000465661287,-0.4375],"type":"VEC3"},{"bufferView":1,"componentType":5126,"count":24,"max":[1,1,1],"min":[-1,-1,-1],"type":"VEC3"},{"bufferView":2,"componentType":5126,"count":24,"max":[0.4990234375,0.9990234375],"min":[0.0009765625,0.7509765625],"type":"VEC2"},{"bufferView":3,"componentType":5123,"count":36,"max":[23],"min":[0],"type":"SCALAR"},{"bufferView":4,"componentType":5126,"count":24,"max":[0.03125,0.21250000596046448,-0.34375],"min":[-0.03125,0.11874999850988388,-0.40625],"type":"VEC3"},{"bufferView":5,"componentType":5126,"count":24,"max":[1,1,1],"min":[-1,-1,-1],"type":"VEC3"},{"bufferView":6,"componentType":5126,"count":24,"max":[0.2490234375,0.7490234375],"min":[0.0009765625,0.6259765625],"type":"VEC2"},{"bufferView":7,"componentType":5123,"count":36,"max":[23],"min":[0],"type":"SCALAR"},{"bufferView":8,"componentType":5126,"count":24,"max":[-0.265625,0.15943750739097595,0.03125],"min":[-0.375,0.15937499701976776,-0.03125],"type":"VEC3"},{"bufferView":9,"componentType":5126,"count":24,"max":[1,1,1],"min":[-1,-1,-1],"type":"VEC3"},{"bufferView":10,"componentType":5126,"count":24,"max":[0.3740234375,0.7490234375],"min":[0.1259765625,0.6865234375],"type":"VEC2"},{"bufferView":11,"componentType":5123,"count":36,"max":[23],"min":[0],"type":"SCALAR"},{"bufferView":12,"componentType":5126,"count":24,"max":[0.109375,0.15943750739097595,-0.34375],"min":[0,0.15937499701976776,-0.40625],"type":"VEC3"},{"bufferView":13,"componentType":5126,"count":24,"max":[1,1,1],"min":[-1,-1,-1],"type":"VEC3"},{"bufferView":14,"componentType":5126,"count":24,"max":[0.4990234375,0.7490234375],"min":[0.2509765625,0.6865234375],"type":"VEC2"},{"bufferView":15,"componentType":5123,"count":36,"max":[23],"min":[0],"type":"SCALAR"},{"bufferView":16,"componentType":5126,"count":24,"max":[0,0.15943750739097595,-0.34375],"min":[-0.109375,0.15937499701976776,-0.40625],"type":"VEC3"},{"bufferView":17,"componentType":5126,"count":24,"max":[1,1,1],"min":[-1,-1,-1],"type":"VEC3"},{"bufferView":18,"componentType":5126,"count":24,"max":[0.5615234375,0.9365234375],"min":[0.3134765625,0.8740234375],"type":"VEC2"},{"bufferView":19,"componentType":5123,"count":36,"max":[23],"min":[0],"type":"SCALAR"},{"bufferView":20,"componentType":5126,"count":24,"max":[-0.375,0.15943750739097595,0.03125],"min":[-0.484375,0.15937499701976776,-0.03125],"type":"VEC3"},{"bufferView":21,"componentType":5126,"count":24,"max":[1,1,1],"min":[-1,-1,-1],"type":"VEC3"},{"bufferView":22,"componentType":5126,"count":24,"max":[0.5615234375,0.9990234375],"min":[0.3134765625,0.9365234375],"type":"VEC2"},{"bufferView":23,"componentType":5123,"count":36,"max":[23],"min":[0],"type":"SCALAR"},{"bufferView":24,"componentType":5126,"count":2,"max":[1.0416666269302368],"min":[0],"type":"SCALAR"},{"bufferView":25,"componentType":5126,"count":2,"max":[0,0.0031250000465661287,0],"min":[0,0.0031250000465661287,0],"type":"VEC3"},{"bufferView":26,"componentType":5126,"count":5,"max":[1.0416666269302368],"min":[0],"type":"SCALAR"},{"bufferView":27,"componentType":5126,"count":5,"max":[1,1.024999976158142,1],"min":[1,0.949999988079071,1],"type":"VEC3"},{"bufferView":28,"componentType":5126,"count":5,"max":[1.0416666269302368],"min":[0],"type":"SCALAR"},{"bufferView":29,"componentType":5126,"count":5,"max":[1,1,1],"min":[1,0.949999988079071,1],"type":"VEC3"},{"bufferView":30,"componentType":5126,"count":5,"max":[1.0416666269302368],"min":[0],"type":"SCALAR"},{"bufferView":31,"componentType":5126,"count":5,"max":[0,0.00937500037252903,0],"min":[0,-0.0031250000465661287,0],"type":"VEC3"}],"materials":[{"pbrMetallicRoughness":{"metallicFactor":0,"roughnessFactor":1,"baseColorTexture":{"index":0}},"alphaMode":"MASK","alphaCutoff":0.05,"doubleSided":true}],"textures":[{"sampler":0,"source":0,"name":"texture2"}],"samplers":[{"magFilter":9728,"minFilter":9728,"wrapS":33071,"wrapT":33071}],"images":[{"mimeType":"image/png","uri":"data:image/png;base64,"}],"meshes":[{"primitives":[{"mode":4,"attributes":{"POSITION":0,"NORMAL":1,"TEXCOORD_0":2},"indices":3,"material":0}]},{"primitives":[{"mode":4,"attributes":{"POSITION":4,"NORMAL":5,"TEXCOORD_0":6},"indices":7,"material":0}]},{"primitives":[{"mode":4,"attributes":{"POSITION":8,"NORMAL":9,"TEXCOORD_0":10},"indices":11,"material":0}]},{"primitives":[{"mode":4,"attributes":{"POSITION":12,"NORMAL":13,"TEXCOORD_0":14},"indices":15,"material":0}]},{"primitives":[{"mode":4,"attributes":{"POSITION":16,"NORMAL":17,"TEXCOORD_0":18},"indices":19,"material":0}]},{"primitives":[{"mode":4,"attributes":{"POSITION":20,"NORMAL":21,"TEXCOORD_0":22},"indices":23,"material":0}]}],"animations":[{"name":"animation.idle","samplers":[{"input":24,"output":25,"interpolation":"LINEAR"},{"input":26,"output":27,"interpolation":"LINEAR"},{"input":28,"output":29,"interpolation":"LINEAR"},{"input":30,"output":31,"interpolation":"LINEAR"}],"channels":[{"sampler":0,"target":{"node":1,"path":"translation"}},{"sampler":1,"target":{"node":1,"path":"scale"}},{"sampler":2,"target":{"node":3,"path":"scale"}},{"sampler":3,"target":{"node":8,"path":"translation"}}]}]}