{"asset":{"version":"2.0","generator":"Blockbench 4.8.1 glTF exporter"},"scenes":[{"nodes":[22],"name":"blockbench_export"}],"scene":0,"nodes":[{"translation":[0,0.3125,-0.15625],"name":"cube","mesh":0},{"name":"cube","mesh":1},{"translation":[0,-0.25,0],"name":"headshooter","children":[0,1]},{"translation":[-0.125,-1.5000000000000004,-0.06249999999999999],"name":"cube","mesh":2},{"translation":[-0.125,-1.5000000000000004,-0.06249999999999999],"name":"cube","mesh":3},{"translation":[0,0.09599364905389063,-0.1875],"name":"ears","children":[3,4]},{"translation":[-0.125,-1.4040063509461098,-0.25],"name":"cube","mesh":4},{"rotation":[0.49999999999999994,0,0,0.8660254037844387],"translation":[0,0.9458734122634727,0.15625],"name":"head","children":[2,5,6]},{"rotation":[0.49999999999999994,0,0,0.8660254037844387],"translation":[0.5,0,0],"name":"cube","mesh":5},{"translation":[-0.375,-0.07087341226347266,-0.03125],"name":"lefthand","children":[8]},{"rotation":[0.49999999999999994,0,0,0.8660254037844387],"translation":[-0.75,0,0],"name":"cube","mesh":6},{"translation":[0.375,-0.07087341226347266,-0.03125],"name":"righthand","children":[10]},{"translation":[0,0.8208734122634727,0.03125],"name":"hands","children":[9,11]},{"name":"cube","mesh":7},{"translation":[-0.125,-0.0541265877365274,0.03125],"name":"body_only","children":[13]},{"rotation":[-0.49999999999999994,0,0,0.8660254037844387],"translation":[0,0.1875,0],"name":"body","children":[7,12,14]},{"translation":[0.1875,-0.1875,0],"name":"cube","mesh":8},{"translation":[-0.1875,0,0],"name":"leftfoot","children":[16]},{"translation":[-0.1875,-0.1875,0],"name":"cube","mesh":9},{"translation":[0.1875,0,0],"name":"rightfoot","children":[18]},{"translation":[0,0.1875,0],"name":"feet","children":[17,19]},{"translation":[0,0,0.125],"name":"ender_ape","children":[15,20]},{"children":[21]}],"bufferViews":[{"buffer":0,"byteOffset":0,"byteLength":288,"target":34962,"byteStride":12},{"buffer":0,"byteOffset":288,"byteLength":288,"target":34962,"byteStride":12},{"buffer":0,"byteOffset":576,"byteLength":192,"target":34962,"byteStride":8},{"buffer":0,"byteOffset":768,"byteLength":72,"target":34963},{"buffer":0,"byteOffset":840,"byteLength":288,"target":34962,"byteStride":12},{"buffer":0,"byteOffset":1128,"byteLength":288,"target":34962,"byteStride":12},{"buffer":0,"byteOffset":1416,"byteLength":192,"target":34962,"byteStride":8},{"buffer":0,"byteOffset":1608,"byteLength":72,"target":34963},{"buffer":0,"byteOffset":1680,"byteLength":288,"target":34962,"byteStride":12},{"buffer":0,"byteOffset":1968,"byteLength":288,"target":34962,"byteStride":12},{"buffer":0,"byteOffset":2256,"byteLength":192,"target":34962,"byteStride":8},{"buffer":0,"byteOffset":2448,"byteLength":72,"target":34963},{"buffer":0,"byteOffset":2520,"byteLength":288,"target":34962,"byteStride":12},{"buffer":0,"byteOffset":2808,"byteLength":288,"target":34962,"byteStride":12},{"buffer":0,"byteOffset":3096,"byteLength":192,"target":34962,"byteStride":8},{"buffer":0,"byteOffset":3288,"byteLength":72,"target":34963},{"buffer":0,"byteOffset":3360,"byteLength":288,"target":34962,"byteStride":12},{"buffer":0,"byteOffset":3648,"byteLength":288,"target":34962,"byteStride":12},{"buffer":0,"byteOffset":3936,"byteLength":192,"target":34962,"byteStride":8},{"buffer":0,"byteOffset":4128,"byteLength":72,"target":34963},{"buffer":0,"byteOffset":4200,"byteLength":288,"target":34962,"byteStride":12},{"buffer":0,"byteOffset":4488,"byteLength":288,"target":34962,"byteStride":12},{"buffer":0,"byteOffset":4776,"byteLength":192,"target":34962,"byteStride":8},{"buffer":0,"byteOffset":4968,"byteLength":72,"target":34963},{"buffer":0,"byteOffset":5040,"byteLength":288,"target":34962,"byteStride":12},{"buffer":0,"byteOffset":5328,"byteLength":288,"target":34962,"byteStride":12},{"buffer":0,"byteOffset":5616,"byteLength":192,"target":34962,"byteStride":8},{"buffer":0,"byteOffset":5808,"byteLength":72,"target":34963},{"buffer":0,"byteOffset":5880,"byteLength":288,"target":34962,"byteStride":12},{"buffer":0,"byteOffset":6168,"byteLength":288,"target":34962,"byteStride":12},{"buffer":0,"byteOffset":6456,"byteLength":192,"target":34962,"byteStride":8},{"buffer":0,"byteOffset":6648,"byteLength":72,"target":34963},{"buffer":0,"byteOffset":6720,"byteLength":288,"target":34962,"byteStride":12},{"buffer":0,"byteOffset":7008,"byteLength":288,"target":34962,"byteStride":12},{"buffer":0,"byteOffset":7296,"byteLength":192,"target":34962,"byteStride":8},{"buffer":0,"byteOffset":7488,"byteLength":72,"target":34963},{"buffer":0,"byteOffset":7560,"byteLength":288,"target":34962,"byteStride":12},{"buffer":0,"byteOffset":7848,"byteLength":288,"target":34962,"byteStride":12},{"buffer":0,"byteOffset":8136,"byteLength":192,"target":34962,"byteStride":8},{"buffer":0,"byteOffset":8328,"byteLength":72,"target":34963},{"buffer":0,"byteOffset":8400,"byteLength":8},{"buffer":0,"byteOffset":8408,"byteLength":32},{"buffer":0,"byteOffset":8440,"byteLength":8},{"buffer":0,"byteOffset":8448,"byteLength":24},{"buffer":0,"byteOffset":8472,"byteLength":8},{"buffer":0,"byteOffset":8480,"byteLength":24},{"buffer":0,"byteOffset":8504,"byteLength":16},{"buffer":0,"byteOffset":8520,"byteLength":64},{"buffer":0,"byteOffset":8584,"byteLength":16},{"buffer":0,"byteOffset":8600,"byteLength":48},{"buffer":0,"byteOffset":8648,"byteLength":16},{"buffer":0,"byteOffset":8664,"byteLength":48},{"buffer":0,"byteOffset":8712,"byteLength":16},{"buffer":0,"byteOffset":8728,"byteLength":48},{"buffer":0,"byteOffset":8776,"byteLength":20},{"buffer":0,"byteOffset":8796,"byteLength":80},{"buffer":0,"byteOffset":8876,"byteLength":20},{"buffer":0,"byteOffset":8896,"byteLength":80},{"buffer":0,"byteOffset":8976,"byteLength":52},{"buffer":0,"byteOffset":9028,"byteLength":208},{"buffer":0,"byteOffset":9236,"byteLength":52},{"buffer":0,"byteOffset":9288,"byteLength":208},{"buffer":0,"byteOffset":9496,"byteLength":16},{"buffer":0,"byteOffset":9512,"byteLength":64},{"buffer":0,"byteOffset":9576,"byteLength":16},{"buffer":0,"byteOffset":9592,"byteLength":64},{"buffer":0,"byteOffset":9656,"byteLength":16},{"buffer":0,"byteOffset":9672,"byteLength":64},{"buffer":0,"byteOffset":9736,"byteLength":16},{"buffer":0,"byteOffset":9752,"byteLength":64},{"buffer":0,"byteOffset":9816,"byteLength":12},{"buffer":0,"byteOffset":9828,"byteLength":48},{"buffer":0,"byteOffset":9876,"byteLength":12},{"buffer":0,"byteOffset":9888,"byteLength":48},{"buffer":0,"byteOffset":9936,"byteLength":12},{"buffer":0,"byteOffset":9948,"byteLength":48},{"buffer":0,"byteOffset":9996,"byteLength":12},{"buffer":0,"byteOffset":10008,"byteLength":48},{"buffer":0,"byteOffset":10056,"byteLength":8},{"buffer":0,"byteOffset":10064,"byteLength":32},{"buffer":0,"byteOffset":10096,"byteLength":28},{"buffer":0,"byteOffset":10124,"byteLength":84},{"buffer":0,"byteOffset":10208,"byteLength":20},{"buffer":0,"byteOffset":10228,"byteLength":80},{"buffer":0,"byteOffset":10308,"byteLength":16},{"buffer":0,"byteOffset":10324,"byteLength":48}],"buffers":[{"byteLength":10372,"uri":"data:application/octet-stream;base64,"}],"accessors":[{"bufferView":0,"componentType":5126,"count":24,"max":[0.1875,0.21875159442424774,0.21875],"min":[-0.1875,-0.031248413026332855,-0.15625],"type":"VEC3"},{"bufferView":1,"componentType":5126,"count":24,"max":[1,1,1],"min":[-1,-1,-1],"type":"VEC3"},{"bufferView":2,"componentType":5126,"count":24,"max":[0.71875,0.6875],"min":[0,0],"type":"VEC2"},{"bufferView":3,"componentType":5123,"count":36,"max":[23],"min":[0],"type":"SCALAR"},{"bufferView":4,"componentType":5126,"count":24,"max":[0.0625,0.46875157952308655,-0.1875],"min":[-0.0625,0.34375157952308655,-0.3125],"type":"VEC3"},{"bufferView":5,"componentType":5126,"count":24,"max":[1,1,1],"min":[-1,-1,-1],"type":"VEC3"},{"bufferView":6,"componentType":5126,"count":24,"max":[0.6875,0.71875],"min":[0,0.65625],"type":"VEC2"},{"bufferView":7,"componentType":5123,"count":36,"max":[23],"min":[0],"type":"SCALAR"},{"bufferView":8,"componentType":5126,"count":24,"max":[-0.125,1.625,0.1875],"min":[-0.1875,1.375,-0.0625],"type":"VEC3"},{"bufferView":9,"componentType":5126,"count":24,"max":[1,1,1],"min":[-1,-1,-1],"type":"VEC3"},{"bufferView":10,"componentType":5126,"count":24,"max":[0.703125,0.75],"min":[0.125,0.125],"type":"VEC2"},{"bufferView":11,"componentType":5123,"count":36,"max":[23],"min":[0],"type":"SCALAR"},{"bufferView":12,"componentType":5126,"count":24,"max":[0.4375,1.625,0.1875],"min":[0.375,1.375,-0.0625],"type":"VEC3"},{"bufferView":13,"componentType":5126,"count":24,"max":[1,1,1],"min":[-1,-1,-1],"type":"VEC3"},{"bufferView":14,"componentType":5126,"count":24,"max":[0.703125,0.75],"min":[0.171875,0.125],"type":"VEC2"},{"bufferView":15,"componentType":5123,"count":36,"max":[23],"min":[0],"type":"SCALAR"},{"bufferView":16,"componentType":5126,"count":24,"max":[0.375,1.6875,0.375],"min":[-0.125,1.1875,-0.125],"type":"VEC3"},{"bufferView":17,"componentType":5126,"count":24,"max":[1,1,1],"min":[-1,-1,-1],"type":"VEC3"},{"bufferView":18,"componentType":5126,"count":24,"max":[0.5625,0.625],"min":[0,0.125],"type":"VEC2"},{"bufferView":19,"componentType":5123,"count":36,"max":[23],"min":[0],"type":"SCALAR"},{"bufferView":20,"componentType":5126,"count":24,"max":[-0.5,0.1875,0.125],"min":[-0.75,-0.5625,-0.125],"type":"VEC3"},{"bufferView":21,"componentType":5126,"count":24,"max":[1,1,1],"min":[-1,-1,-1],"type":"VEC3"},{"bufferView":22,"componentType":5126,"count":24,"max":[0.6875,0.6875],"min":[0.25,0.1875],"type":"VEC2"},{"bufferView":23,"componentType":5123,"count":36,"max":[23],"min":[0],"type":"SCALAR"},{"bufferView":24,"componentType":5126,"count":24,"max":[1,0.1875,0.125],"min":[0.75,-0.5625,-0.125],"type":"VEC3"},{"bufferView":25,"componentType":5126,"count":24,"max":[1,1,1],"min":[-1,-1,-1],"type":"VEC3"},{"bufferView":26,"componentType":5126,"count":24,"max":[0.6875,0.6875],"min":[0.4375,0],"type":"VEC2"},{"bufferView":27,"componentType":5123,"count":36,"max":[23],"min":[0],"type":"SCALAR"},{"bufferView":28,"componentType":5126,"count":24,"max":[0.5,1,0.375],"min":[-0.25,5.551115123125783e-17,-0.125],"type":"VEC3"},{"bufferView":29,"componentType":5126,"count":24,"max":[1,1,1],"min":[-1,-1,-1],"type":"VEC3"},{"bufferView":30,"componentType":5126,"count":24,"max":[0.5625,0.5],"min":[0,0],"type":"VEC2"},{"bufferView":31,"componentType":5123,"count":36,"max":[23],"min":[0],"type":"SCALAR"},{"bufferView":32,"componentType":5126,"count":24,"max":[-0.375,0.25,0.0625],"min":[-0.5,0,-0.0625],"type":"VEC3"},{"bufferView":33,"componentType":5126,"count":24,"max":[1,1,1],"min":[-1,-1,-1],"type":"VEC3"},{"bufferView":34,"componentType":5126,"count":24,"max":[0.6875,0.71875],"min":[0.21875,0.4375],"type":"VEC2"},{"bufferView":35,"componentType":5123,"count":36,"max":[23],"min":[0],"type":"SCALAR"},{"bufferView":36,"componentType":5126,"count":24,"max":[0.5,0.25,0.0625],"min":[0.375,0,-0.0625],"type":"VEC3"},{"bufferView":37,"componentType":5126,"count":24,"max":[1,1,1],"min":[-1,-1,-1],"type":"VEC3"},{"bufferView":38,"componentType":5126,"count":24,"max":[0.71875,0.71875],"min":[0.28125,0.25],"type":"VEC2"},{"bufferView":39,"componentType":5123,"count":36,"max":[23],"min":[0],"type":"SCALAR"},{"bufferView":40,"componentType":5126,"count":2,"max":[0.0833333358168602],"min":[0],"type":"SCALAR"},{"bufferView":41,"componentType":5126,"count":2,"max":[0.7933533191680908,0,0,0.8660253882408142],"min":[0.5,0,0,0.6087614297866821],"type":"VEC4"},{"bufferView":42,"componentType":5126,"count":2,"max":[0.0833333358168602],"min":[0],"type":"SCALAR"},{"bufferView":43,"componentType":5126,"count":2,"max":[0,0.9458734393119812,0.28125],"min":[0,0.9458734393119812,0.15625],"type":"VEC3"},{"bufferView":44,"componentType":5126,"count":2,"max":[0.125],"min":[0],"type":"SCALAR"},{"bufferView":45,"componentType":5126,"count":2,"max":[0,0.8208734393119812,0.40625],"min":[0,0.8208734393119812,0.03125],"type":"VEC3"},{"bufferView":46,"componentType":5126,"count":4,"max":[0.4583333432674408],"min":[0.0833333358168602],"type":"SCALAR"},{"bufferView":47,"componentType":5126,"count":4,"max":[-0.5,0,0,0.8660253882408142],"min":[-0.6087614297866821,0,0,0.7933533191680908],"type":"VEC4"},{"bufferView":48,"componentType":5126,"count":4,"max":[0.5],"min":[0],"type":"SCALAR"},{"bufferView":49,"componentType":5126,"count":4,"max":[0,0.9458734393119812,0.28125],"min":[0,0.9458734393119812,0.03125],"type":"VEC3"},{"bufferView":50,"componentType":5126,"count":4,"max":[0.5],"min":[0],"type":"SCALAR"},{"bufferView":51,"componentType":5126,"count":4,"max":[0,0.09599364548921585,-0.1875],"min":[0,0.03349364921450615,-0.1875],"type":"VEC3"},{"bufferView":52,"componentType":5126,"count":4,"max":[0.4583333432674408],"min":[0.0833333358168602],"type":"SCALAR"},{"bufferView":53,"componentType":5126,"count":4,"max":[0,0.9458734393119812,0.15625],"min":[0,0.8208734393119812,0.03125],"type":"VEC3"},{"bufferView":54,"componentType":5126,"count":5,"max":[0.5],"min":[0],"type":"SCALAR"},{"bufferView":55,"componentType":5126,"count":5,"max":[0.258819043636322,0,0,1],"min":[-0.258819043636322,0,0,0.9659258127212524],"type":"VEC4"},{"bufferView":56,"componentType":5126,"count":5,"max":[0.5],"min":[0],"type":"SCALAR"},{"bufferView":57,"componentType":5126,"count":5,"max":[0.258819043636322,0,0,1],"min":[-0.258819043636322,0,0,0.9659258127212524],"type":"VEC4"},{"bufferView":58,"componentType":5126,"count":13,"max":[0.5],"min":[0],"type":"SCALAR"},{"bufferView":59,"componentType":5126,"count":13,"max":[0.258819043636322,0,0,1],"min":[-0.258819043636322,0,0,0.9659258127212524],"type":"VEC4"},{"bufferView":60,"componentType":5126,"count":13,"max":[0.5],"min":[0],"type":"SCALAR"},{"bufferView":61,"componentType":5126,"count":13,"max":[0.258819043636322,0,0,1],"min":[-0.258819043636322,0,0,0.9659258127212524],"type":"VEC4"},{"bufferView":62,"componentType":5126,"count":4,"max":[0.5],"min":[0],"type":"SCALAR"},{"bufferView":63,"componentType":5126,"count":4,"max":[0.5,0,0,0.8660253882408142],"min":[-0.8968727588653564,0,0,-0.8660253882408142],"type":"VEC4"},{"bufferView":64,"componentType":5126,"count":4,"max":[0.5],"min":[0],"type":"SCALAR"},{"bufferView":65,"componentType":5126,"count":4,"max":[0.7798844575881958,0,0,0.8660253882408142],"min":[0.5,0,0,0.6259234547615051],"type":"VEC4"},{"bufferView":66,"componentType":5126,"count":4,"max":[0.5],"min":[0.0416666679084301],"type":"SCALAR"},{"bufferView":67,"componentType":5126,"count":4,"max":[0.9997619986534119,0,0,1],"min":[0,0,0,0.02181488461792469],"type":"VEC4"},{"bufferView":68,"componentType":5126,"count":4,"max":[0.5],"min":[0],"type":"SCALAR"},{"bufferView":69,"componentType":5126,"count":4,"max":[0,0,0,1],"min":[-0.8767267465591431,0,0,-1],"type":"VEC4"},{"bufferView":70,"componentType":5126,"count":3,"max":[0.5],"min":[0],"type":"SCALAR"},{"bufferView":71,"componentType":5126,"count":3,"max":[-0.4226182699203491,0,0,0.9063078165054321],"min":[-0.5,0,0,0.8660253882408142],"type":"VEC4"},{"bufferView":72,"componentType":5126,"count":3,"max":[0.5],"min":[0],"type":"SCALAR"},{"bufferView":73,"componentType":5126,"count":3,"max":[0.8314695954322815,0,0,1],"min":[0,0,0,0.5555702447891235],"type":"VEC4"},{"bufferView":74,"componentType":5126,"count":3,"max":[0.5],"min":[0.1666666716337204],"type":"SCALAR"},{"bufferView":75,"componentType":5126,"count":3,"max":[0,0,0,1],"min":[0,-0.258819043636322,0,0.9659258127212524],"type":"VEC4"},{"bufferView":76,"componentType":5126,"count":3,"max":[0.5],"min":[0.1666666716337204],"type":"SCALAR"},{"bufferView":77,"componentType":5126,"count":3,"max":[0,0.258819043636322,0,1],"min":[0,0,0,0.9659258127212524],"type":"VEC4"},{"bufferView":78,"componentType":5126,"count":2,"max":[0.125],"min":[0],"type":"SCALAR"},{"bufferView":79,"componentType":5126,"count":2,"max":[0,0,0,1],"min":[0,0,0,1],"type":"VEC4"},{"bufferView":80,"componentType":5126,"count":7,"max":[0.6666666865348816],"min":[0],"type":"SCALAR"},{"bufferView":81,"componentType":5126,"count":7,"max":[0,0.9458734393119812,0.21875],"min":[0,0.9458734393119812,0.09375],"type":"VEC3"},{"bufferView":82,"componentType":5126,"count":5,"max":[0.75],"min":[0.0833333358168602],"type":"SCALAR"},{"bufferView":83,"componentType":5126,"count":5,"max":[0.237685889005661,0,0,1],"min":[-0.08715574443340302,0,0,0.9713420867919922],"type":"VEC4"},{"bufferView":84,"componentType":5126,"count":4,"max":[0.75],"min":[0],"type":"SCALAR"},{"bufferView":85,"componentType":5126,"count":4,"max":[0,0,0],"min":[0,-0.25,0],"type":"VEC3"}],"materials":[{"pbrMetallicRoughness":{"metallicFactor":0,"roughnessFactor":1,"baseColorTexture":{"index":0}},"alphaMode":"MASK","alphaCutoff":0.05,"doubleSided":true}],"textures":[{"sampler":0,"source":0,"name":"mankeeeeee.png"}],"samplers":[{"magFilter":9728,"minFilter":9728,"wrapS":33071,"wrapT":33071}],"images":[{"mimeType":"image/png","uri":"data:image/png;base64,"}],"meshes":[{"primitives":[{"mode":4,"attributes":{"POSITION":0,"NORMAL":1,"TEXCOORD_0":2},"indices":3,"material":0}]},{"primitives":[{"mode":4,"attributes":{"POSITION":4,"NORMAL":5,"TEXCOORD_0":6},"indices":7,"material":0}]},{"primitives":[{"mode":4,"attributes":{"POSITION":8,"NORMAL":9,"TEXCOORD_0":10},"indices":11,"material":0}]},{"primitives":[{"mode":4,"attributes":{"POSITION":12,"NORMAL":13,"TEXCOORD_0":14},"indices":15,"material":0}]},{"primitives":[{"mode":4,"attributes":{"POSITION":16,"NORMAL":17,"TEXCOORD_0":18},"indices":19,"material":0}]},{"primitives":[{"mode":4,"attributes":{"POSITION":20,"NORMAL":21,"TEXCOORD_0":22},"indices":23,"material":0}]},{"primitives":[{"mode":4,"attributes":{"POSITION":24,"NORMAL":25,"TEXCOORD_0":26},"indices":27,"material":0}]},{"primitives":[{"mode":4,"attributes":{"POSITION":28,"NORMAL":29,"TEXCOORD_0":30},"indices":31,"material":0}]},{"primitives":[{"mode":4,"attributes":{"POSITION":32,"NORMAL":33,"TEXCOORD_0":34},"indices":35,"material":0}]},{"primitives":[{"mode":4,"attributes":{"POSITION":36,"NORMAL":37,"TEXCOORD_0":38},"indices":39,"material":0}]}],"animations":[{"name":"spawn","samplers":[{"input":40,"output":41,"interpolation":"LINEAR"},{"input":42,"output":43,"interpolation":"LINEAR"},{"input":44,"output":45,"interpolation":"LINEAR"}],"channels":[{"sampler":0,"target":{"node":7,"path":"rotation"}},{"sampler":1,"target":{"node":7,"path":"translation"}},{"sampler":2,"target":{"node":12,"path":"translation"}}]},{"name":"dancing","samplers":[{"input":46,"output":47,"interpolation":"LINEAR"},{"input":48,"output":49,"interpolation":"LINEAR"},{"input":50,"output":51,"interpolation":"LINEAR"},{"input":52,"output":53,"interpolation":"LINEAR"}],"channels":[{"sampler":0,"target":{"node":15,"path":"rotation"}},{"sampler":1,"target":{"node":7,"path":"translation"}},{"sampler":2,"target":{"node":5,"path":"translation"}},{"sampler":3,"target":{"node":12,"path":"translation"}}]},{"name":"walking","samplers":[{"input":54,"output":55,"interpolation":"LINEAR"},{"input":56,"output":57,"interpolation":"LINEAR"},{"input":58,"output":59,"interpolation":"LINEAR"},{"input":60,"output":61,"interpolation":"LINEAR"}],"channels":[{"sampler":0,"target":{"node":9,"path":"rotation"}},{"sampler":1,"target":{"node":11,"path":"rotation"}},{"sampler":2,"target":{"node":17,"path":"rotation"}},{"sampler":3,"target":{"node":19,"path":"rotation"}}]},{"name":"turning fall damage to attack","samplers":[{"input":62,"output":63,"interpolation":"LINEAR"},{"input":64,"output":65,"interpolation":"LINEAR"},{"input":66,"output":67,"interpolation":"LINEAR"},{"input":68,"output":69,"interpolation":"LINEAR"}],"channels":[{"sampler":0,"target":{"node":15,"path":"rotation"}},{"sampler":1,"target":{"node":7,"path":"rotation"}},{"sampler":2,"target":{"node":12,"path":"rotation"}},{"sampler":3,"target":{"node":20,"path":"rotation"}}]},{"name":"attack","samplers":[{"input":70,"output":71,"interpolation":"LINEAR"},{"input":72,"output":73,"interpolation":"LINEAR"},{"input":74,"output":75,"interpolation":"LINEAR"},{"input":76,"output":77,"interpolation":"LINEAR"},{"input":78,"output":79,"interpolation":"LINEAR"}],"channels":[{"sampler":0,"target":{"node":15,"path":"rotation"}},{"sampler":1,"target":{"node":12,"path":"rotation"}},{"sampler":2,"target":{"node":9,"path":"rotation"}},{"sampler":3,"target":{"node":11,"path":"rotation"}},{"sampler":4,"target":{"node":20,"path":"rotation"}}]},{"name":"ranged attack","samplers":[{"input":80,"output":81,"interpolation":"LINEAR"},{"input":82,"output":83,"interpolation":"LINEAR"},{"input":84,"output":85,"interpolation":"LINEAR"}],"channels":[{"sampler":0,"target":{"node":7,"path":"translation"}},{"sampler":1,"target":{"node":12,"path":"rotation"}},{"sampler":2,"target":{"node":2,"path":"translation"}}]}]}