{"asset":{"version":"2.0","generator":"Blockbench 3.7.5 glTF exporter"},"scenes":[{"nodes":[1,3,5,7,9,11,13,15,17,18,20,21,23,25,26,27,28,29,30,31,32,33,34],"name":"blockbench_export"}],"scene":0,"nodes":[{"translation":[0,0,-0.5],"name":"4b0fcbfe-5ce9-e02d-42cf-bfd798766b4e","mesh":0},{"rotation":[-0.3214394653031616,0,0,0.9469301294951057],"translation":[0,6,-1.25],"name":"bone14","children":[0]},{"translation":[0,0,-0.5],"name":"ab42a951-dc5f-e540-adf0-94556e4921e7","mesh":1},{"rotation":[-0.6427876096865393,0,0,0.766044443118978],"translation":[0,5.75,-1.25],"name":"bone13","children":[2]},{"translation":[0,0.25,0],"name":"6e0df6b8-ae7e-b4fd-ccf0-dd54b41fbef3","mesh":2},{"translation":[-0.5,6,-0.75],"name":"bone12","children":[4]},{"translation":[-0.6343249020867059,-2,-1.2108478614532214],"name":"9e7a8c72-465b-cc38-3d2b-b2631a1b722f","mesh":3},{"rotation":[0,-0.625923472184059,0,0.7798844830928819],"translation":[0.6343249020867059,4.75,-0.7891521385467786],"name":"bone11","children":[6]},{"translation":[0.6343249020867059,-2,-1.2108478614532214],"name":"7fae7c84-c5aa-b469-c131-7d9fa1e083c6","mesh":4},{"rotation":[0,0.625923472184059,0,0.7798844830928819],"translation":[-0.6343249020867059,4.75,-0.7891521385467786],"name":"bone","children":[8]},{"translation":[0.5,0,-0.5],"name":"d3d84516-e86d-2fe7-7353-607b3c243162","mesh":5},{"rotation":[-0.25881904510252074,0,0,0.9659258262890683],"translation":[1,4.5,0.5],"name":"bone10","children":[10]},{"translation":[1.5,0,-0.5],"name":"c3ca2b38-e5a5-71a9-e96b-2a0e5a7aab73","mesh":6},{"rotation":[0.5274680651301806,0.08091831053218895,-0.6735893195197972,0.5113776451090682],"translation":[-1.5,8.5,0.5],"name":"bone9","children":[12]},{"translation":[1,0,-1.5],"name":"c6e7fa63-8bbc-ce41-cafd-7df0f86044ff","mesh":7},{"rotation":[-0.05748308821439553,-0.2349139923239812,0.4773515831678623,0.8447760512863038],"translation":[-1.5,9,1.5],"name":"bone8","children":[14]},{"translation":[-0.5,-0.5,-0.5],"name":"5fa4b303-7e5e-91c2-b38b-9a95928f12e3","mesh":8},{"rotation":[0.3826834323650898,0,0,0.9238795325112867],"translation":[0,7.5,-1.75],"name":"bone7","children":[16]},{"rotation":[0.06126719023809129,-0.13924028162215152,0.39805932672467226,0.904658636050977],"translation":[-1.5,9,1.5],"name":"bone6"},{"translation":[-1,0,-1.5],"name":"7e1cd68a-f4da-2895-dc2e-19fa19253491","mesh":9},{"rotation":[-0.05748308821439553,0.2349139923239812,-0.4773515831678623,0.8447760512863038],"translation":[1.5,9,1.5],"name":"bone5","children":[19]},{"rotation":[-0.25881904510252074,0,0,0.9659258262890683],"translation":[1,4.5,0.5],"name":"bone4"},{"translation":[-0.5,0,-0.5],"name":"973949d9-8b38-8036-ed86-55b93e0e1ebd","mesh":10},{"rotation":[-0.25881904510252074,0,0,0.9659258262890683],"translation":[-1,4.5,0.5],"name":"bone3","children":[22]},{"translation":[-1.5,0,-0.5],"name":"44d792c4-b91a-6126-8b63-e4806853898d","mesh":11},{"rotation":[0.5274680651301806,-0.08091831053218895,0.6735893195197972,0.5113776451090682],"translation":[1.5,8.5,0.5],"name":"bone2","children":[24]},{"translation":[0.25,1,0],"name":"6bfc26bd-63e6-e469-6557-573384f2be42","mesh":12},{"translation":[-0.5,6.5,1.75],"name":"5e343899-4fcb-cf00-f2ea-ed5d59759fc3","mesh":13},{"translation":[-0.25,1,0],"name":"89502f58-8fa1-d3df-ac6c-5240dda21de8","mesh":14},{"translation":[0.5,6.25,-0.75],"name":"9acae501-598d-8259-17b9-944479032d66","mesh":15},{"translation":[0,8,-0.75],"name":"74dc9f06-64fb-7280-cb43-7795ddb3c382","mesh":16},{"translation":[-1.5,5.5,-1.25],"name":"eecffb1e-e224-3c80-a348-8754f02e0842","mesh":17},{"translation":[0,5,0],"name":"d917a6e1-769c-69e8-f752-42c8804ca832","mesh":18},{"rotation":[0.5274680651301806,0.08091831053218895,-0.6735893195197972,0.5113776451090682],"translation":[-1.5,8.5,0.5],"name":"bone"},{"rotation":[0.6677225103777845,-0.35961520964894944,0.6349954523978649,0.1469840996773557],"translation":[1.5,8,2],"name":"bone5"}],"bufferViews":[{"buffer":0,"byteOffset":0,"byteLength":432,"target":34962,"byteStride":12},{"buffer":0,"byteOffset":432,"byteLength":432,"target":34962,"byteStride":12},{"buffer":0,"byteOffset":864,"byteLength":288,"target":34962,"byteStride":8},{"buffer":0,"byteOffset":1152,"byteLength":432,"target":34962,"byteStride":12},{"buffer":0,"byteOffset":1584,"byteLength":432,"target":34962,"byteStride":12},{"buffer":0,"byteOffset":2016,"byteLength":288,"target":34962,"byteStride":8},{"buffer":0,"byteOffset":2304,"byteLength":432,"target":34962,"byteStride":12},{"buffer":0,"byteOffset":2736,"byteLength":432,"target":34962,"byteStride":12},{"buffer":0,"byteOffset":3168,"byteLength":288,"target":34962,"byteStride":8},{"buffer":0,"byteOffset":3456,"byteLength":432,"target":34962,"byteStride":12},{"buffer":0,"byteOffset":3888,"byteLength":432,"target":34962,"byteStride":12},{"buffer":0,"byteOffset":4320,"byteLength":288,"target":34962,"byteStride":8},{"buffer":0,"byteOffset":4608,"byteLength":432,"target":34962,"byteStride":12},{"buffer":0,"byteOffset":5040,"byteLength":432,"target":34962,"byteStride":12},{"buffer":0,"byteOffset":5472,"byteLength":288,"target":34962,"byteStride":8},{"buffer":0,"byteOffset":5760,"byteLength":432,"target":34962,"byteStride":12},{"buffer":0,"byteOffset":6192,"byteLength":432,"target":34962,"byteStride":12},{"buffer":0,"byteOffset":6624,"byteLength":288,"target":34962,"byteStride":8},{"buffer":0,"byteOffset":6912,"byteLength":432,"target":34962,"byteStride":12},{"buffer":0,"byteOffset":7344,"byteLength":432,"target":34962,"byteStride":12},{"buffer":0,"byteOffset":7776,"byteLength":288,"target":34962,"byteStride":8},{"buffer":0,"byteOffset":8064,"byteLength":432,"target":34962,"byteStride":12},{"buffer":0,"byteOffset":8496,"byteLength":432,"target":34962,"byteStride":12},{"buffer":0,"byteOffset":8928,"byteLength":288,"target":34962,"byteStride":8},{"buffer":0,"byteOffset":9216,"byteLength":432,"target":34962,"byteStride":12},{"buffer":0,"byteOffset":9648,"byteLength":432,"target":34962,"byteStride":12},{"buffer":0,"byteOffset":10080,"byteLength":288,"target":34962,"byteStride":8},{"buffer":0,"byteOffset":10368,"byteLength":432,"target":34962,"byteStride":12},{"buffer":0,"byteOffset":10800,"byteLength":432,"target":34962,"byteStride":12},{"buffer":0,"byteOffset":11232,"byteLength":288,"target":34962,"byteStride":8},{"buffer":0,"byteOffset":11520,"byteLength":432,"target":34962,"byteStride":12},{"buffer":0,"byteOffset":11952,"byteLength":432,"target":34962,"byteStride":12},{"buffer":0,"byteOffset":12384,"byteLength":288,"target":34962,"byteStride":8},{"buffer":0,"byteOffset":12672,"byteLength":432,"target":34962,"byteStride":12},{"buffer":0,"byteOffset":13104,"byteLength":432,"target":34962,"byteStride":12},{"buffer":0,"byteOffset":13536,"byteLength":288,"target":34962,"byteStride":8},{"buffer":0,"byteOffset":13824,"byteLength":432,"target":34962,"byteStride":12},{"buffer":0,"byteOffset":14256,"byteLength":432,"target":34962,"byteStride":12},{"buffer":0,"byteOffset":14688,"byteLength":288,"target":34962,"byteStride":8},{"buffer":0,"byteOffset":14976,"byteLength":432,"target":34962,"byteStride":12},{"buffer":0,"byteOffset":15408,"byteLength":432,"target":34962,"byteStride":12},{"buffer":0,"byteOffset":15840,"byteLength":288,"target":34962,"byteStride":8},{"buffer":0,"byteOffset":16128,"byteLength":432,"target":34962,"byteStride":12},{"buffer":0,"byteOffset":16560,"byteLength":432,"target":34962,"byteStride":12},{"buffer":0,"byteOffset":16992,"byteLength":288,"target":34962,"byteStride":8},{"buffer":0,"byteOffset":17280,"byteLength":432,"target":34962,"byteStride":12},{"buffer":0,"byteOffset":17712,"byteLength":432,"target":34962,"byteStride":12},{"buffer":0,"byteOffset":18144,"byteLength":288,"target":34962,"byteStride":8},{"buffer":0,"byteOffset":18432,"byteLength":432,"target":34962,"byteStride":12},{"buffer":0,"byteOffset":18864,"byteLength":432,"target":34962,"byteStride":12},{"buffer":0,"byteOffset":19296,"byteLength":288,"target":34962,"byteStride":8},{"buffer":0,"byteOffset":19584,"byteLength":432,"target":34962,"byteStride":12},{"buffer":0,"byteOffset":20016,"byteLength":432,"target":34962,"byteStride":12},{"buffer":0,"byteOffset":20448,"byteLength":288,"target":34962,"byteStride":8},{"buffer":0,"byteOffset":20736,"byteLength":432,"target":34962,"byteStride":12},{"buffer":0,"byteOffset":21168,"byteLength":432,"target":34962,"byteStride":12},{"buffer":0,"byteOffset":21600,"byteLength":288,"target":34962,"byteStride":8}],"buffers":[{"byteLength":21888,"uri":"data:application/octet-stream;base64,"}],"accessors":[{"bufferView":0,"componentType":5126,"count":36,"max":[1,0.12600000202655792,1.2165063619613647],"min":[-1,0.125,0.21650634706020355],"type":"VEC3"},{"bufferView":1,"componentType":5126,"count":36,"max":[1,1,1],"min":[-1,-1,-1],"type":"VEC3"},{"bufferView":2,"componentType":5126,"count":36,"max":[0.3740234375,0.9990234375],"min":[0.0009765625,0.9365234375],"type":"VEC2"},{"bufferView":3,"componentType":5126,"count":36,"max":[1,0.12600000202655792,1.2165063619613647],"min":[-1,0.125,0.21650634706020355],"type":"VEC3"},{"bufferView":4,"componentType":5126,"count":36,"max":[1,1,1],"min":[-1,-1,-1],"type":"VEC3"},{"bufferView":5,"componentType":5126,"count":36,"max":[0.3740234375,0.9990234375],"min":[0.0009765625,0.9365234375],"type":"VEC2"},{"bufferView":6,"componentType":5126,"count":36,"max":[0.5,0.5,0.5],"min":[-0.5,-0.5,-0.5],"type":"VEC3"},{"bufferView":7,"componentType":5126,"count":36,"max":[1,1,1],"min":[-1,-1,-1],"type":"VEC3"},{"bufferView":8,"componentType":5126,"count":36,"max":[0.4365234375,0.2490234375],"min":[0.1884765625,0.1259765625],"type":"VEC2"},{"bufferView":9,"componentType":5126,"count":36,"max":[1.2497620582580566,3.5,0.9900951385498047],"min":[0.24976205825805664,1.5,0.989095151424408],"type":"VEC3"},{"bufferView":10,"componentType":5126,"count":36,"max":[1,1,1],"min":[-1,-1,-1],"type":"VEC3"},{"bufferView":11,"componentType":5126,"count":36,"max":[0.1240234375,0.7509765625],"min":[-0.0009765625,0.6259765625],"type":"VEC2"},{"bufferView":12,"componentType":5126,"count":36,"max":[-0.24976205825805664,3.5,0.9900951385498047],"min":[-1.2497620582580566,1.5,0.989095151424408],"type":"VEC3"},{"bufferView":13,"componentType":5126,"count":36,"max":[1,1,1],"min":[-1,-1,-1],"type":"VEC3"},{"bufferView":14,"componentType":5126,"count":36,"max":[0.1240234375,0.7509765625],"min":[-0.0009765625,0.6259765625],"type":"VEC2"},{"bufferView":15,"componentType":5126,"count":36,"max":[-0.25,0.9665063619613647,1.5580127239227295],"min":[-1.25,-1.0334936380386353,0.5580127239227295],"type":"VEC3"},{"bufferView":16,"componentType":5126,"count":36,"max":[1,1,1],"min":[-1,-1,-1],"type":"VEC3"},{"bufferView":17,"componentType":5126,"count":36,"max":[0.8740234375,0.5615234375],"min":[0.6259765625,0.3759765625],"type":"VEC2"},{"bufferView":18,"componentType":5126,"count":36,"max":[0.3016616702079773,0.10861483216285706,1.1076148748397827],"min":[-2.698338270187378,0.10761483013629913,-0.8923851847648621],"type":"VEC3"},{"bufferView":19,"componentType":5126,"count":36,"max":[1,1,1],"min":[-1,-1,-1],"type":"VEC3"},{"bufferView":20,"componentType":5126,"count":36,"max":[0.9365234375,0.6865234375],"min":[0.3134765625,0.5615234375],"type":"VEC2"},{"bufferView":21,"componentType":5126,"count":36,"max":[-0.07557541877031326,0.10497087985277176,3.2715439796447754],"min":[-2.075575351715088,0.10397088527679443,0.27154403924942017],"type":"VEC3"},{"bufferView":22,"componentType":5126,"count":36,"max":[1,1,1],"min":[-1,-1,-1],"type":"VEC3"},{"bufferView":23,"componentType":5126,"count":36,"max":[0.6240234375,0.8115234375],"min":[0.0009765625,0.6240234375],"type":"VEC2"},{"bufferView":24,"componentType":5126,"count":36,"max":[1,1.3111015558242798,1.3876245021820068],"min":[0,0.3111015856266022,0.3876245617866516],"type":"VEC3"},{"bufferView":25,"componentType":5126,"count":36,"max":[1,1,1],"min":[-1,-1,-1],"type":"VEC3"},{"bufferView":26,"componentType":5126,"count":36,"max":[0.9365234375,0.3115234375],"min":[0.6884765625,0.1884765625],"type":"VEC2"},{"bufferView":27,"componentType":5126,"count":36,"max":[2.075575351715088,0.10497087985277176,3.2715439796447754],"min":[0.07557541877031326,0.10397088527679443,0.27154403924942017],"type":"VEC3"},{"bufferView":28,"componentType":5126,"count":36,"max":[1,1,1],"min":[-1,-1,-1],"type":"VEC3"},{"bufferView":29,"componentType":5126,"count":36,"max":[0.6240234375,0.8115234375],"min":[0.0009765625,0.6240234375],"type":"VEC2"},{"bufferView":30,"componentType":5126,"count":36,"max":[1.25,0.9665063619613647,1.5580127239227295],"min":[0.25,-1.0334936380386353,0.5580127239227295],"type":"VEC3"},{"bufferView":31,"componentType":5126,"count":36,"max":[1,1,1],"min":[-1,-1,-1],"type":"VEC3"},{"bufferView":32,"componentType":5126,"count":36,"max":[0.8740234375,0.5615234375],"min":[0.6259765625,0.3759765625],"type":"VEC2"},{"bufferView":33,"componentType":5126,"count":36,"max":[2.698338270187378,0.10861483216285706,1.1076148748397827],"min":[-0.3016616702079773,0.10761483013629913,-0.8923851847648621],"type":"VEC3"},{"bufferView":34,"componentType":5126,"count":36,"max":[1,1,1],"min":[-1,-1,-1],"type":"VEC3"},{"bufferView":35,"componentType":5126,"count":36,"max":[0.9365234375,0.6865234375],"min":[0.3134765625,0.5615234375],"type":"VEC2"},{"bufferView":36,"componentType":5126,"count":36,"max":[1,3,1.0010000467300415],"min":[0,1,1],"type":"VEC3"},{"bufferView":37,"componentType":5126,"count":36,"max":[1,1,1],"min":[-1,-1,-1],"type":"VEC3"},{"bufferView":38,"componentType":5126,"count":36,"max":[0.1240234375,0.8759765625],"min":[-0.0009765625,0.7509765625],"type":"VEC2"},{"bufferView":39,"componentType":5126,"count":36,"max":[1,1,1],"min":[0,0,0],"type":"VEC3"},{"bufferView":40,"componentType":5126,"count":36,"max":[1,1,1],"min":[-1,-1,-1],"type":"VEC3"},{"bufferView":41,"componentType":5126,"count":36,"max":[0.9365234375,0.8740234375],"min":[0.6884765625,0.7509765625],"type":"VEC2"},{"bufferView":42,"componentType":5126,"count":36,"max":[0,3,1.0010000467300415],"min":[-1,1,1],"type":"VEC3"},{"bufferView":43,"componentType":5126,"count":36,"max":[1,1,1],"min":[-1,-1,-1],"type":"VEC3"},{"bufferView":44,"componentType":5126,"count":36,"max":[0.1240234375,0.8759765625],"min":[-0.0009765625,0.7509765625],"type":"VEC2"},{"bufferView":45,"componentType":5126,"count":36,"max":[0.5,0.5,0.5],"min":[-0.5,-0.5,-0.5],"type":"VEC3"},{"bufferView":46,"componentType":5126,"count":36,"max":[1,1,1],"min":[-1,-1,-1],"type":"VEC3"},{"bufferView":47,"componentType":5126,"count":36,"max":[0.6865234375,0.2490234375],"min":[0.4384765625,0.1259765625],"type":"VEC2"},{"bufferView":48,"componentType":5126,"count":36,"max":[0.5,0.5,0],"min":[-0.5,-0.5,-2],"type":"VEC3"},{"bufferView":49,"componentType":5126,"count":36,"max":[1,1,1],"min":[-1,-1,-1],"type":"VEC3"},{"bufferView":50,"componentType":5126,"count":36,"max":[0.8115234375,0.8740234375],"min":[0.4384765625,0.6884765625],"type":"VEC2"},{"bufferView":51,"componentType":5126,"count":36,"max":[2,2,2],"min":[1,0,0],"type":"VEC3"},{"bufferView":52,"componentType":5126,"count":36,"max":[1,1,1],"min":[-1,-1,-1],"type":"VEC3"},{"bufferView":53,"componentType":5126,"count":36,"max":[0.7490234375,0.4990234375],"min":[0.3759765625,0.2509765625],"type":"VEC2"},{"bufferView":54,"componentType":5126,"count":36,"max":[1,2,2],"min":[-1,0,0],"type":"VEC3"},{"bufferView":55,"componentType":5126,"count":36,"max":[1,1,1],"min":[-1,-1,-1],"type":"VEC3"},{"bufferView":56,"componentType":5126,"count":36,"max":[0.4990234375,0.6240234375],"min":[0.0009765625,0.3759765625],"type":"VEC2"}],"materials":[{"pbrMetallicRoughness":{"metallicFactor":0,"roughnessFactor":1,"baseColorTexture":{"index":0}},"alphaMode":"MASK","alphaCutoff":0.05,"doubleSided":true,"name":"test.png"}],"textures":[{"sampler":0,"source":0,"name":"test.png"}],"samplers":[{"magFilter":9728,"minFilter":9728,"wrapS":33071,"wrapT":33071}],"images":[{"mimeType":"image/png","uri":"data:image/png;base64,"}],"meshes":[{"primitives":[{"mode":4,"attributes":{"POSITION":0,"NORMAL":1,"TEXCOORD_0":2},"material":0}]},{"primitives":[{"mode":4,"attributes":{"POSITION":3,"NORMAL":4,"TEXCOORD_0":5},"material":0}]},{"primitives":[{"mode":4,"attributes":{"POSITION":6,"NORMAL":7,"TEXCOORD_0":8},"material":0}]},{"primitives":[{"mode":4,"attributes":{"POSITION":9,"NORMAL":10,"TEXCOORD_0":11},"material":0}]},{"primitives":[{"mode":4,"attributes":{"POSITION":12,"NORMAL":13,"TEXCOORD_0":14},"material":0}]},{"primitives":[{"mode":4,"attributes":{"POSITION":15,"NORMAL":16,"TEXCOORD_0":17},"material":0}]},{"primitives":[{"mode":4,"attributes":{"POSITION":18,"NORMAL":19,"TEXCOORD_0":20},"material":0}]},{"primitives":[{"mode":4,"attributes":{"POSITION":21,"NORMAL":22,"TEXCOORD_0":23},"material":0}]},{"primitives":[{"mode":4,"attributes":{"POSITION":24,"NORMAL":25,"TEXCOORD_0":26},"material":0}]},{"primitives":[{"mode":4,"attributes":{"POSITION":27,"NORMAL":28,"TEXCOORD_0":29},"material":0}]},{"primitives":[{"mode":4,"attributes":{"POSITION":30,"NORMAL":31,"TEXCOORD_0":32},"material":0}]},{"primitives":[{"mode":4,"attributes":{"POSITION":33,"NORMAL":34,"TEXCOORD_0":35},"material":0}]},{"primitives":[{"mode":4,"attributes":{"POSITION":36,"NORMAL":37,"TEXCOORD_0":38},"material":0}]},{"primitives":[{"mode":4,"attributes":{"POSITION":39,"NORMAL":40,"TEXCOORD_0":41},"material":0}]},{"primitives":[{"mode":4,"attributes":{"POSITION":42,"NORMAL":43,"TEXCOORD_0":44},"material":0}]},{"primitives":[{"mode":4,"attributes":{"POSITION":45,"NORMAL":46,"TEXCOORD_0":47},"material":0}]},{"primitives":[{"mode":4,"attributes":{"POSITION":48,"NORMAL":49,"TEXCOORD_0":50},"material":0}]},{"primitives":[{"mode":4,"attributes":{"POSITION":51,"NORMAL":52,"TEXCOORD_0":53},"material":0}]},{"primitives":[{"mode":4,"attributes":{"POSITION":54,"NORMAL":55,"TEXCOORD_0":56},"material":0}]}]}