{"asset":{"version":"2.0","generator":"Blockbench 3.7.5 glTF exporter"},"scenes":[{"nodes":[43],"name":"blockbench_export"}],"scene":0,"nodes":[{"rotation":[0,0,-0.08715574274765817,0.9961946980917455],"translation":[2.3871699999999993,-3.70421,0],"name":"rightarm2"},{"rotation":[0,0,-0.06540312923014306,0.9978589232386035],"translation":[6.5,-5,0.5],"name":"rightarm","children":[0]},{"translation":[-0.002,-23,0],"name":"e27405a0-c739-86ba-d031-d8c2641e908f","mesh":0},{"rotation":[-0.17364817766693033,0,0,0.984807753012208],"translation":[0.010000000000000009,-4.899999999999999,-4],"name":"20caf6e9-c868-caee-5101-0f1e18252a8f","mesh":1},{"rotation":[0.10018806161207629,0,0,0.9949685182509117],"translation":[0.01,0,-3],"name":"ec04d566-a815-59a4-e4c2-72613d93c4e6","mesh":2},{"translation":[0,-23,0],"name":"0c9d6d6f-e1a4-41ea-cb32-0d7d57fde091","mesh":3},{"rotation":[0.043619387365336,0,0,0.9990482215818578],"translation":[0,-14,-2.5],"name":"45e55701-1d9a-dbcb-54a7-d3170bb3c090","mesh":4},{"translation":[0,-23,0],"name":"08e54b43-bad9-9ffd-15c5-c21765df87a9","mesh":5},{"translation":[0,-23,0],"name":"abdcb597-fcde-d94e-3864-1cfe33d4b35c","mesh":6},{"rotation":[-0.3007057995042731,0,0,0.9537169507482269],"translation":[0,0,2.5],"name":"1e87b0bb-c9e7-72e1-8246-c60bd6a06f4f","mesh":7},{"translation":[3,0,0],"name":"bone2"},{"rotation":[0,0,-0.06540312923014306,0.9978589232386035],"translation":[0,0,0.5],"name":"ed998165-8327-79aa-1be4-abd55d4d9493","mesh":8},{"translation":[5,0,0.5],"name":"bone","children":[10,11]},{"name":"96187ba9-3f8e-0e08-12c3-8694422b5160","mesh":9},{"translation":[8,-23,-0.5],"name":"bc88aafa-e8f8-9f82-4075-72863f6bdcb5","mesh":10},{"translation":[1.9999999999999964,-1.0000000000000036,0],"name":"789ba06e-5caf-a30b-265f-fad703efe618","mesh":11},{"translation":[0,-1.5,0],"name":"35e273d0-a0a0-85aa-8569-72ddac74e002","mesh":12},{"rotation":[0,0,0.08715574274765817,0.9961946980917455],"translation":[0.5,-5.499999999999993,-0.5],"name":"leftarm4","children":[16]},{"rotation":[0,0,-0.625923472184059,0.7798844830928819],"translation":[-3,-0.5000000000000071,0],"name":"leftarm3","children":[15,17]},{"rotation":[0,0,0.21643961393810288,0.9762960071199334],"translation":[-3,0,0.5],"name":"bone4","children":[14,18]},{"rotation":[0,0,0.3420201433256687,0.9396926207859084],"translation":[-5,0,0],"name":"bone3","children":[13,19]},{"translation":[0,-9,-0.5],"name":"8e166fe7-8c62-fac8-b7b4-cc33e18cc515","mesh":13},{"translation":[0,-9.5,-3.5],"name":"13c5064d-1e04-6751-fd27-552daa02ec00","mesh":14},{"translation":[0,-10,-8.5],"name":"388152dc-728f-b614-bfaa-1ea1e8b596c7","mesh":15},{"rotation":[-0.1521233861899167,0,0,0.9883615104677607],"translation":[0,0.5,5],"name":"tail3","children":[23]},{"rotation":[-0.1521233861899167,0,0,0.9883615104677607],"translation":[0,0.5,3],"name":"tail2","children":[22,24]},{"rotation":[0.25881904510252074,0,0,0.9659258262890683],"translation":[0,-14,0.5],"name":"tail","children":[21,25]},{"translation":[0,-24,0],"name":"d0e845c5-e6c9-4950-d39c-de03a4895731","mesh":16},{"rotation":[0.48098876891938763,0,0,0.8767267557075077],"translation":[0,4.5,-3],"name":"cff14ed1-f105-dded-33c8-621dfd6eaa6e","mesh":17},{"translation":[0,-24,0],"name":"121675bb-3e97-8ac4-0210-8a6c70650a4d","mesh":18},{"translation":[0,1,0],"name":"head","children":[27,28,29]},{"name":"68d1dada-8a2c-8fa3-08e9-f90ed3a8b8ca","mesh":19},{"translation":[0,-23,0],"name":"leg1","children":[31]},{"name":"9b5a9d17-e178-a91c-e647-e921c1437f9f","mesh":20},{"translation":[0,-23,0],"name":"leg0","children":[33]},{"name":"a8676ade-a734-3c27-87e0-afc067785b60","mesh":21},{"translation":[-8,-23,-0.5],"name":"2560642d-cb14-eaa9-f09e-56779edb97d6","mesh":22},{"translation":[-1.9999999999999964,-1.0000000000000036,0],"name":"11d1c93c-2faf-0712-5b3b-b053a42318c4","mesh":23},{"translation":[0,-1.5,0],"name":"5c38408f-a797-787d-533c-1485cde39a78","mesh":24},{"rotation":[0,0,-0.08715574274765817,0.9961946980917455],"translation":[-0.5,-5.499999999999993,-0.5],"name":"leftarm7","children":[38]},{"rotation":[0,0,0.625923472184059,0.7798844830928819],"translation":[3,-0.5000000000000071,0],"name":"leftarm6","children":[37,39]},{"rotation":[0,0,-0.21643961393810288,0.9762960071199334],"translation":[3,0,0.5],"name":"leftarm5","children":[36,40]},{"rotation":[0,0,-0.3420201433256687,0.9396926207859084],"translation":[5,0,0],"name":"leftarm4","children":[35,41]},{"translation":[0,23,0],"name":"body0","children":[1,2,3,4,5,6,7,8,9,12,20,26,30,32,34,42]}],"bufferViews":[{"buffer":0,"byteOffset":0,"byteLength":432,"target":34962,"byteStride":12},{"buffer":0,"byteOffset":432,"byteLength":432,"target":34962,"byteStride":12},{"buffer":0,"byteOffset":864,"byteLength":288,"target":34962,"byteStride":8},{"buffer":0,"byteOffset":1152,"byteLength":432,"target":34962,"byteStride":12},{"buffer":0,"byteOffset":1584,"byteLength":432,"target":34962,"byteStride":12},{"buffer":0,"byteOffset":2016,"byteLength":288,"target":34962,"byteStride":8},{"buffer":0,"byteOffset":2304,"byteLength":432,"target":34962,"byteStride":12},{"buffer":0,"byteOffset":2736,"byteLength":432,"target":34962,"byteStride":12},{"buffer":0,"byteOffset":3168,"byteLength":288,"target":34962,"byteStride":8},{"buffer":0,"byteOffset":3456,"byteLength":432,"target":34962,"byteStride":12},{"buffer":0,"byteOffset":3888,"byteLength":432,"target":34962,"byteStride":12},{"buffer":0,"byteOffset":4320,"byteLength":288,"target":34962,"byteStride":8},{"buffer":0,"byteOffset":4608,"byteLength":432,"target":34962,"byteStride":12},{"buffer":0,"byteOffset":5040,"byteLength":432,"target":34962,"byteStride":12},{"buffer":0,"byteOffset":5472,"byteLength":288,"target":34962,"byteStride":8},{"buffer":0,"byteOffset":5760,"byteLength":432,"target":34962,"byteStride":12},{"buffer":0,"byteOffset":6192,"byteLength":432,"target":34962,"byteStride":12},{"buffer":0,"byteOffset":6624,"byteLength":288,"target":34962,"byteStride":8},{"buffer":0,"byteOffset":6912,"byteLength":432,"target":34962,"byteStride":12},{"buffer":0,"byteOffset":7344,"byteLength":432,"target":34962,"byteStride":12},{"buffer":0,"byteOffset":7776,"byteLength":288,"target":34962,"byteStride":8},{"buffer":0,"byteOffset":8064,"byteLength":432,"target":34962,"byteStride":12},{"buffer":0,"byteOffset":8496,"byteLength":432,"target":34962,"byteStride":12},{"buffer":0,"byteOffset":8928,"byteLength":288,"target":34962,"byteStride":8},{"buffer":0,"byteOffset":9216,"byteLength":432,"target":34962,"byteStride":12},{"buffer":0,"byteOffset":9648,"byteLength":432,"target":34962,"byteStride":12},{"buffer":0,"byteOffset":10080,"byteLength":288,"target":34962,"byteStride":8},{"buffer":0,"byteOffset":10368,"byteLength":432,"target":34962,"byteStride":12},{"buffer":0,"byteOffset":10800,"byteLength":432,"target":34962,"byteStride":12},{"buffer":0,"byteOffset":11232,"byteLength":288,"target":34962,"byteStride":8},{"buffer":0,"byteOffset":11520,"byteLength":432,"target":34962,"byteStride":12},{"buffer":0,"byteOffset":11952,"byteLength":432,"target":34962,"byteStride":12},{"buffer":0,"byteOffset":12384,"byteLength":288,"target":34962,"byteStride":8},{"buffer":0,"byteOffset":12672,"byteLength":432,"target":34962,"byteStride":12},{"buffer":0,"byteOffset":13104,"byteLength":432,"target":34962,"byteStride":12},{"buffer":0,"byteOffset":13536,"byteLength":288,"target":34962,"byteStride":8},{"buffer":0,"byteOffset":13824,"byteLength":432,"target":34962,"byteStride":12},{"buffer":0,"byteOffset":14256,"byteLength":432,"target":34962,"byteStride":12},{"buffer":0,"byteOffset":14688,"byteLength":288,"target":34962,"byteStride":8},{"buffer":0,"byteOffset":14976,"byteLength":432,"target":34962,"byteStride":12},{"buffer":0,"byteOffset":15408,"byteLength":432,"target":34962,"byteStride":12},{"buffer":0,"byteOffset":15840,"byteLength":288,"target":34962,"byteStride":8},{"buffer":0,"byteOffset":16128,"byteLength":432,"target":34962,"byteStride":12},{"buffer":0,"byteOffset":16560,"byteLength":432,"target":34962,"byteStride":12},{"buffer":0,"byteOffset":16992,"byteLength":288,"target":34962,"byteStride":8},{"buffer":0,"byteOffset":17280,"byteLength":432,"target":34962,"byteStride":12},{"buffer":0,"byteOffset":17712,"byteLength":432,"target":34962,"byteStride":12},{"buffer":0,"byteOffset":18144,"byteLength":288,"target":34962,"byteStride":8},{"buffer":0,"byteOffset":18432,"byteLength":432,"target":34962,"byteStride":12},{"buffer":0,"byteOffset":18864,"byteLength":432,"target":34962,"byteStride":12},{"buffer":0,"byteOffset":19296,"byteLength":288,"target":34962,"byteStride":8},{"buffer":0,"byteOffset":19584,"byteLength":432,"target":34962,"byteStride":12},{"buffer":0,"byteOffset":20016,"byteLength":432,"target":34962,"byteStride":12},{"buffer":0,"byteOffset":20448,"byteLength":288,"target":34962,"byteStride":8},{"buffer":0,"byteOffset":20736,"byteLength":432,"target":34962,"byteStride":12},{"buffer":0,"byteOffset":21168,"byteLength":432,"target":34962,"byteStride":12},{"buffer":0,"byteOffset":21600,"byteLength":288,"target":34962,"byteStride":8},{"buffer":0,"byteOffset":21888,"byteLength":432,"target":34962,"byteStride":12},{"buffer":0,"byteOffset":22320,"byteLength":432,"target":34962,"byteStride":12},{"buffer":0,"byteOffset":22752,"byteLength":288,"target":34962,"byteStride":8},{"buffer":0,"byteOffset":23040,"byteLength":432,"target":34962,"byteStride":12},{"buffer":0,"byteOffset":23472,"byteLength":432,"target":34962,"byteStride":12},{"buffer":0,"byteOffset":23904,"byteLength":288,"target":34962,"byteStride":8},{"buffer":0,"byteOffset":24192,"byteLength":432,"target":34962,"byteStride":12},{"buffer":0,"byteOffset":24624,"byteLength":432,"target":34962,"byteStride":12},{"buffer":0,"byteOffset":25056,"byteLength":288,"target":34962,"byteStride":8},{"buffer":0,"byteOffset":25344,"byteLength":432,"target":34962,"byteStride":12},{"buffer":0,"byteOffset":25776,"byteLength":432,"target":34962,"byteStride":12},{"buffer":0,"byteOffset":26208,"byteLength":288,"target":34962,"byteStride":8},{"buffer":0,"byteOffset":26496,"byteLength":432,"target":34962,"byteStride":12},{"buffer":0,"byteOffset":26928,"byteLength":432,"target":34962,"byteStride":12},{"buffer":0,"byteOffset":27360,"byteLength":288,"target":34962,"byteStride":8},{"buffer":0,"byteOffset":27648,"byteLength":432,"target":34962,"byteStride":12},{"buffer":0,"byteOffset":28080,"byteLength":432,"target":34962,"byteStride":12},{"buffer":0,"byteOffset":28512,"byteLength":288,"target":34962,"byteStride":8}],"buffers":[{"byteLength":28800,"uri":"data:application/octet-stream;base64,"}],"accessors":[{"bufferView":0,"componentType":5126,"count":36,"max":[5.001999855041504,23,3],"min":[-4.998000144958496,15,-3],"type":"VEC3"},{"bufferView":1,"componentType":5126,"count":36,"max":[1,1,1],"min":[-1,-1,-1],"type":"VEC3"},{"bufferView":2,"componentType":5126,"count":36,"max":[0.499755859375,0.999755859375],"min":[0.000244140625,0.781494140625],"type":"VEC2"},{"bufferView":3,"componentType":5126,"count":36,"max":[4.991000175476074,0.0010000000474974513,1.0010000467300415],"min":[-5.011000156402588,-3.000999927520752,-0.0010000000474974513],"type":"VEC3"},{"bufferView":4,"componentType":5126,"count":36,"max":[1,1,1],"min":[-1,-1,-1],"type":"VEC3"},{"bufferView":5,"componentType":5126,"count":36,"max":[0.874755859375,0.499755859375],"min":[0.531494140625,0.437744140625],"type":"VEC2"},{"bufferView":6,"componentType":5126,"count":36,"max":[5,0.009999999776482582,1.0099999904632568],"min":[-5.019999980926514,-5.010000228881836,-0.009999999776482582],"type":"VEC3"},{"bufferView":7,"componentType":5126,"count":36,"max":[1,1,1],"min":[-1,-1,-1],"type":"VEC3"},{"bufferView":8,"componentType":5126,"count":36,"max":[0.640380859375,0.781005859375],"min":[0.297119140625,0.687744140625],"type":"VEC2"},{"bufferView":9,"componentType":5126,"count":36,"max":[4,15,2.5],"min":[-4,9,-2.5],"type":"VEC3"},{"bufferView":10,"componentType":5126,"count":36,"max":[1,1,1],"min":[-1,-1,-1],"type":"VEC3"},{"bufferView":11,"componentType":5126,"count":36,"max":[0.734130859375,0.671630859375],"min":[0.328369140625,0.500244140625],"type":"VEC2"},{"bufferView":12,"componentType":5126,"count":36,"max":[2,0,0.0010000000474974513],"min":[-2,-5,0],"type":"VEC3"},{"bufferView":13,"componentType":5126,"count":36,"max":[1,1,1],"min":[-1,-1,-1],"type":"VEC3"},{"bufferView":14,"componentType":5126,"count":36,"max":[0.874755859375,0.906494140625],"min":[0.749755859375,0.828369140625],"type":"VEC2"},{"bufferView":15,"componentType":5126,"count":36,"max":[5,11,0.5],"min":[4,8,-1.5],"type":"VEC3"},{"bufferView":16,"componentType":5126,"count":36,"max":[1,1,1],"min":[-1,-1,-1],"type":"VEC3"},{"bufferView":17,"componentType":5126,"count":36,"max":[0.093505859375,0.781005859375],"min":[0.000244140625,0.703369140625],"type":"VEC2"},{"bufferView":18,"componentType":5126,"count":36,"max":[-4,11,0.5],"min":[-5,8,-1.5],"type":"VEC3"},{"bufferView":19,"componentType":5126,"count":36,"max":[1,1,1],"min":[-1,-1,-1],"type":"VEC3"},{"bufferView":20,"componentType":5126,"count":36,"max":[0.093505859375,0.781005859375],"min":[0.000244140625,0.703369140625],"type":"VEC2"},{"bufferView":21,"componentType":5126,"count":36,"max":[2.5,6,-1],"min":[-2.5,0,-5],"type":"VEC3"},{"bufferView":22,"componentType":5126,"count":36,"max":[1,1,1],"min":[-1,-1,-1],"type":"VEC3"},{"bufferView":23,"componentType":5126,"count":36,"max":[0.281005859375,0.484130859375],"min":[0.000244140625,0.328369140625],"type":"VEC2"},{"bufferView":24,"componentType":5126,"count":36,"max":[0.0010000000474974513,1,1],"min":[0,0,-3],"type":"VEC3"},{"bufferView":25,"componentType":5126,"count":36,"max":[1,1,1],"min":[-1,-1,-1],"type":"VEC3"},{"bufferView":26,"componentType":5126,"count":36,"max":[0.422119140625,0.749755859375],"min":[0.297119140625,0.672119140625],"type":"VEC2"},{"bufferView":27,"componentType":5126,"count":36,"max":[0.0010000000474974513,0.0010000000474974513,2.000999927520752],"min":[-3.000999927520752,-4.000999927520752,-2.000999927520752],"type":"VEC3"},{"bufferView":28,"componentType":5126,"count":36,"max":[1,1,1],"min":[-1,-1,-1],"type":"VEC3"},{"bufferView":29,"componentType":5126,"count":36,"max":[0.781005859375,0.281005859375],"min":[0.562744140625,0.156494140625],"type":"VEC2"},{"bufferView":30,"componentType":5126,"count":36,"max":[-8,23,2],"min":[-11,19,-2],"type":"VEC3"},{"bufferView":31,"componentType":5126,"count":36,"max":[1,1,1],"min":[-1,-1,-1],"type":"VEC3"},{"bufferView":32,"componentType":5126,"count":36,"max":[0.781005859375,0.281005859375],"min":[0.562744140625,0.156494140625],"type":"VEC2"},{"bufferView":33,"componentType":5126,"count":36,"max":[1,1,1],"min":[-2,-5,-2],"type":"VEC3"},{"bufferView":34,"componentType":5126,"count":36,"max":[1,1,1],"min":[-1,-1,-1],"type":"VEC3"},{"bufferView":35,"componentType":5126,"count":36,"max":[0.562255859375,0.296630859375],"min":[0.375244140625,0.156494140625],"type":"VEC2"},{"bufferView":36,"componentType":5126,"count":36,"max":[2.200000047683716,1.2000000476837158,1.2000000476837158],"min":[-0.20000000298023224,-5.199999809265137,-1.2000000476837158],"type":"VEC3"},{"bufferView":37,"componentType":5126,"count":36,"max":[1,1,1],"min":[-1,-1,-1],"type":"VEC3"},{"bufferView":38,"componentType":5126,"count":36,"max":[0.343505859375,0.202880859375],"min":[0.218994140625,0.078369140625],"type":"VEC2"},{"bufferView":39,"componentType":5126,"count":36,"max":[1.5,12,3.5],"min":[-1.5,9,0.5],"type":"VEC3"},{"bufferView":40,"componentType":5126,"count":36,"max":[1,1,1],"min":[-1,-1,-1],"type":"VEC3"},{"bufferView":41,"componentType":5126,"count":36,"max":[0.937255859375,0.999755859375],"min":[0.750244140625,0.906494140625],"type":"VEC2"},{"bufferView":42,"componentType":5126,"count":36,"max":[1,11.5,8.5],"min":[-1,9.5,3.5],"type":"VEC3"},{"bufferView":43,"componentType":5126,"count":36,"max":[1,1,1],"min":[-1,-1,-1],"type":"VEC3"},{"bufferView":44,"componentType":5126,"count":36,"max":[0.218505859375,0.265380859375],"min":[0.000244140625,0.156494140625],"type":"VEC2"},{"bufferView":45,"componentType":5126,"count":36,"max":[0.699999988079071,11.199999809265137,11.699999809265137],"min":[-0.699999988079071,9.800000190734863,8.300000190734863],"type":"VEC3"},{"bufferView":46,"componentType":5126,"count":36,"max":[1,1,1],"min":[-1,-1,-1],"type":"VEC3"},{"bufferView":47,"componentType":5126,"count":36,"max":[0.156005859375,0.218505859375],"min":[0.031494140625,0.156494140625],"type":"VEC2"},{"bufferView":48,"componentType":5126,"count":36,"max":[3,28.5,0],"min":[-3,24.5,-7],"type":"VEC3"},{"bufferView":49,"componentType":5126,"count":36,"max":[1,1,1],"min":[-1,-1,-1],"type":"VEC3"},{"bufferView":50,"componentType":5126,"count":36,"max":[0.406005859375,0.781005859375],"min":[0.000244140625,0.609619140625],"type":"VEC2"},{"bufferView":51,"componentType":5126,"count":36,"max":[0.0010000000474974513,4,7],"min":[0,0,0],"type":"VEC3"},{"bufferView":52,"componentType":5126,"count":36,"max":[1,1,1],"min":[-1,-1,-1],"type":"VEC3"},{"bufferView":53,"componentType":5126,"count":36,"max":[0.218994140625,0.437255859375],"min":[0.000244140625,0.265869140625],"type":"VEC2"},{"bufferView":54,"componentType":5126,"count":36,"max":[3,24.5,0],"min":[-3,23.5,-7],"type":"VEC3"},{"bufferView":55,"componentType":5126,"count":36,"max":[1,1,1],"min":[-1,-1,-1],"type":"VEC3"},{"bufferView":56,"componentType":5126,"count":36,"max":[0.406005859375,0.609130859375],"min":[0.000244140625,0.484619140625],"type":"VEC2"},{"bufferView":57,"componentType":5126,"count":36,"max":[4.5,9,2],"min":[0.5,0,-2],"type":"VEC3"},{"bufferView":58,"componentType":5126,"count":36,"max":[1,1,1],"min":[-1,-1,-1],"type":"VEC3"},{"bufferView":59,"componentType":5126,"count":36,"max":[0.593505859375,0.499755859375],"min":[0.343994140625,0.297119140625],"type":"VEC2"},{"bufferView":60,"componentType":5126,"count":36,"max":[-0.5,9,2],"min":[-4.5,0,-2],"type":"VEC3"},{"bufferView":61,"componentType":5126,"count":36,"max":[1,1,1],"min":[-1,-1,-1],"type":"VEC3"},{"bufferView":62,"componentType":5126,"count":36,"max":[0.593505859375,0.499755859375],"min":[0.343994140625,0.297119140625],"type":"VEC2"},{"bufferView":63,"componentType":5126,"count":36,"max":[3.000999927520752,0.0010000000474974513,2.000999927520752],"min":[-0.0010000000474974513,-4.000999927520752,-2.000999927520752],"type":"VEC3"},{"bufferView":64,"componentType":5126,"count":36,"max":[1,1,1],"min":[-1,-1,-1],"type":"VEC3"},{"bufferView":65,"componentType":5126,"count":36,"max":[0.781005859375,0.281005859375],"min":[0.562744140625,0.156494140625],"type":"VEC2"},{"bufferView":66,"componentType":5126,"count":36,"max":[11,23,2],"min":[8,19,-2],"type":"VEC3"},{"bufferView":67,"componentType":5126,"count":36,"max":[1,1,1],"min":[-1,-1,-1],"type":"VEC3"},{"bufferView":68,"componentType":5126,"count":36,"max":[0.781005859375,0.281005859375],"min":[0.562744140625,0.156494140625],"type":"VEC2"},{"bufferView":69,"componentType":5126,"count":36,"max":[2,1,1],"min":[-1,-5,-2],"type":"VEC3"},{"bufferView":70,"componentType":5126,"count":36,"max":[1,1,1],"min":[-1,-1,-1],"type":"VEC3"},{"bufferView":71,"componentType":5126,"count":36,"max":[0.562255859375,0.296630859375],"min":[0.375244140625,0.156494140625],"type":"VEC2"},{"bufferView":72,"componentType":5126,"count":36,"max":[0.20000000298023224,1.2000000476837158,1.2000000476837158],"min":[-2.200000047683716,-5.199999809265137,-1.2000000476837158],"type":"VEC3"},{"bufferView":73,"componentType":5126,"count":36,"max":[1,1,1],"min":[-1,-1,-1],"type":"VEC3"},{"bufferView":74,"componentType":5126,"count":36,"max":[0.343505859375,0.202880859375],"min":[0.218994140625,0.078369140625],"type":"VEC2"}],"materials":[{"pbrMetallicRoughness":{"metallicFactor":0,"roughnessFactor":1,"baseColorTexture":{"index":0}},"alphaMode":"MASK","alphaCutoff":0.05,"doubleSided":true,"name":"knight.png"}],"textures":[{"sampler":0,"source":0,"name":"knight.png"}],"samplers":[{"magFilter":9728,"minFilter":9728,"wrapS":33071,"wrapT":33071}],"images":[{"mimeType":"image/png","uri":"data:image/png;base64,"}],"meshes":[{"primitives":[{"mode":4,"attributes":{"POSITION":0,"NORMAL":1,"TEXCOORD_0":2},"material":0}]},{"primitives":[{"mode":4,"attributes":{"POSITION":3,"NORMAL":4,"TEXCOORD_0":5},"material":0}]},{"primitives":[{"mode":4,"attributes":{"POSITION":6,"NORMAL":7,"TEXCOORD_0":8},"material":0}]},{"primitives":[{"mode":4,"attributes":{"POSITION":9,"NORMAL":10,"TEXCOORD_0":11},"material":0}]},{"primitives":[{"mode":4,"attributes":{"POSITION":12,"NORMAL":13,"TEXCOORD_0":14},"material":0}]},{"primitives":[{"mode":4,"attributes":{"POSITION":15,"NORMAL":16,"TEXCOORD_0":17},"material":0}]},{"primitives":[{"mode":4,"attributes":{"POSITION":18,"NORMAL":19,"TEXCOORD_0":20},"material":0}]},{"primitives":[{"mode":4,"attributes":{"POSITION":21,"NORMAL":22,"TEXCOORD_0":23},"material":0}]},{"primitives":[{"mode":4,"attributes":{"POSITION":24,"NORMAL":25,"TEXCOORD_0":26},"material":0}]},{"primitives":[{"mode":4,"attributes":{"POSITION":27,"NORMAL":28,"TEXCOORD_0":29},"material":0}]},{"primitives":[{"mode":4,"attributes":{"POSITION":30,"NORMAL":31,"TEXCOORD_0":32},"material":0}]},{"primitives":[{"mode":4,"attributes":{"POSITION":33,"NORMAL":34,"TEXCOORD_0":35},"material":0}]},{"primitives":[{"mode":4,"attributes":{"POSITION":36,"NORMAL":37,"TEXCOORD_0":38},"material":0}]},{"primitives":[{"mode":4,"attributes":{"POSITION":39,"NORMAL":40,"TEXCOORD_0":41},"material":0}]},{"primitives":[{"mode":4,"attributes":{"POSITION":42,"NORMAL":43,"TEXCOORD_0":44},"material":0}]},{"primitives":[{"mode":4,"attributes":{"POSITION":45,"NORMAL":46,"TEXCOORD_0":47},"material":0}]},{"primitives":[{"mode":4,"attributes":{"POSITION":48,"NORMAL":49,"TEXCOORD_0":50},"material":0}]},{"primitives":[{"mode":4,"attributes":{"POSITION":51,"NORMAL":52,"TEXCOORD_0":53},"material":0}]},{"primitives":[{"mode":4,"attributes":{"POSITION":54,"NORMAL":55,"TEXCOORD_0":56},"material":0}]},{"primitives":[{"mode":4,"attributes":{"POSITION":57,"NORMAL":58,"TEXCOORD_0":59},"material":0}]},{"primitives":[{"mode":4,"attributes":{"POSITION":60,"NORMAL":61,"TEXCOORD_0":62},"material":0}]},{"primitives":[{"mode":4,"attributes":{"POSITION":63,"NORMAL":64,"TEXCOORD_0":65},"material":0}]},{"primitives":[{"mode":4,"attributes":{"POSITION":66,"NORMAL":67,"TEXCOORD_0":68},"material":0}]},{"primitives":[{"mode":4,"attributes":{"POSITION":69,"NORMAL":70,"TEXCOORD_0":71},"material":0}]},{"primitives":[{"mode":4,"attributes":{"POSITION":72,"NORMAL":73,"TEXCOORD_0":74},"material":0}]}]}