{"asset":{"version":"2.0","generator":"Blockbench 3.8.4 glTF exporter"},"scenes":[{"nodes":[3,8,10,15,20,25,30],"name":"blockbench_export"}],"scene":0,"nodes":[{"name":"d21fc299-d787-3b15-71eb-284f8e18e59f","mesh":0},{"rotation":[0,0,-0.01745240643728351,0.9998476951563913],"translation":[0,0.25,0],"name":"c18f3c5b-76ca-1705-e462-aa58f329b46d","mesh":1},{"rotation":[0,0,0.01745240643728351,0.9998476951563913],"translation":[0,0.25,0],"name":"6d870682-d88e-94a3-019c-d7a63f7b279a","mesh":2},{"translation":[0,-0.015625,0],"name":"body","children":[0,1,2]},{"translation":[0,-0.125,-0.375],"name":"de1d580a-1b86-83d0-7c43-97058d397b48","mesh":3},{"rotation":[0.06540312923014306,0,0,0.9978589232386035],"translation":[0,0.015625,0.234375],"name":"1730cda3-4527-cbf5-3805-85028094db50","mesh":4},{"rotation":[0,0,-0.01745240643728351,0.9998476951563913],"translation":[0,0.0625,0.125],"name":"eabe33b9-2a6c-0ddd-fd0d-65b99f3565fe","mesh":5},{"rotation":[0,0,0.01745240643728351,0.9998476951563913],"translation":[0,0.0625,0.125],"name":"389a1ba8-2a14-d82d-6ae3-1def24fdf0fb","mesh":6},{"translation":[0,0.125,0.375],"name":"mob_tail","children":[4,5,6,7]},{"rotation":[-0.08715574274765818,0,0,0.9961946980917455],"name":"77ea25c4-7d70-73dc-9b03-ab3640ca26cb","mesh":7},{"translation":[0,0.140625,-0.375],"name":"mob_head","children":[9]},{"rotation":[-0.029677800397974685,0.19281976534550233,0.14920037798016636,0.9693704211838831],"name":"292cb664-0f32-721d-ceb5-42f9ddb96cec","mesh":8},{"rotation":[0,0,0.02181488503456112,0.9997620270799091],"translation":[-0.10156250000000003,-0.023437499999999972,0.024999999999999745],"name":"14bab8f8-1781-7120-5d4d-c2adcc371fff","mesh":9},{"rotation":[-0.034103831911799776,-0.4971033444865429,0.07760510024224632,0.8635407587170485],"translation":[-0.1796874999999999,-0.023437499999999972,0.024999999999999745],"name":"8d2f1d06-f746-5bc8-bd8b-1fa6fd2a072a","mesh":10},{"rotation":[-0.004712382588191001,-0.06371876188989478,0.09720622650625425,0.9932112878748288],"translation":[-0.1796874999999999,-0.023437499999999972,0.024999999999999745],"name":"6d943854-9920-50cf-070e-d867ceffb5ba","mesh":11},{"translation":[-0.125,0.09375,0.25],"name":"left_leg","children":[11,12,13,14]},{"rotation":[-0.029677800397974685,-0.19281976534550233,-0.14920037798016636,0.9693704211838831],"name":"249208d7-44f1-ca10-761b-93a2f4297dbc","mesh":12},{"rotation":[0,0,-0.02181488503456112,0.9997620270799091],"translation":[0.10156250000000003,-0.023437499999999972,0.024999999999999745],"name":"39274be4-6dcd-fd12-3a50-d71bd0718558","mesh":13},{"rotation":[-0.034103831911799776,0.4971033444865429,-0.07760510024224632,0.8635407587170485],"translation":[0.1796874999999999,-0.023437499999999972,0.024999999999999745],"name":"742ee392-0aee-da20-f680-77171de65dd0","mesh":14},{"rotation":[-0.004712382588191001,0.06371876188989478,-0.09720622650625425,0.9932112878748288],"translation":[0.1796874999999999,-0.023437499999999972,0.024999999999999745],"name":"8272e888-1ae7-1c48-5871-5374eb947482","mesh":15},{"translation":[0.125,0.09375,0.25],"name":"right_leg","children":[16,17,18,19]},{"rotation":[0.02928810608200233,-0.40069740432894607,-0.08233075369830103,0.9120336857822985],"translation":[-0.0015624999999999944,0,-0.04218749999999993],"name":"f743e2c7-0907-c9bd-43c9-f3bf7fb3e4e5","mesh":16},{"rotation":[-0.02107156085240946,0.25875745317858284,0.005646107713666378,0.965695962099595],"translation":[0.08444500613947417,-0.020812202810780167,0.09773886603095061],"name":"c3d8d3f2-8b1c-46cc-be99-546f23455063","mesh":17},{"rotation":[-0.04712750216642633,0.4612094567122125,-0.07046007006972745,0.8832328198751156],"translation":[0.1937499999999993,-0.01874999999999999,0.021875000000000422],"name":"168b73d1-119f-ef7b-ce08-6bb10b68291c","mesh":18},{"rotation":[-0.07945093859610966,0.8034298382706467,-0.056203250594959814,0.5873918946965133],"translation":[0.1937499999999993,-0.01874999999999999,0.021875000000000422],"name":"a1fa3c2b-9272-6081-97d0-16f5ef04b589","mesh":19},{"translation":[0.125,0.09375,-0.25],"name":"right_arm","children":[21,22,23,24]},{"rotation":[0.02928810608200233,0.40069740432894607,0.08233075369830103,0.9120336857822985],"translation":[0.0015624999999999944,0,-0.04218749999999993],"name":"ce84c8b3-100d-7f99-8bba-24eef0be8a82","mesh":20},{"rotation":[-0.02107156085240946,-0.25875745317858284,-0.005646107713666378,0.965695962099595],"translation":[-0.08444500613947417,-0.020812202810780167,0.09773886603095061],"name":"c96778bd-8b22-d108-67c8-6dcbd0ad8bca","mesh":21},{"rotation":[-0.04712750216642633,-0.4612094567122125,0.07046007006972745,0.8832328198751156],"translation":[-0.1937499999999993,-0.01874999999999999,0.021875000000000422],"name":"001399ee-5b83-6c9d-63f5-894dda950866","mesh":22},{"rotation":[-0.07945093859610966,-0.8034298382706467,0.056203250594959814,0.5873918946965133],"translation":[-0.1937499999999993,-0.01874999999999999,0.021875000000000422],"name":"666fb065-294a-0b64-10bd-1f1b7e732df0","mesh":23},{"translation":[-0.125,0.09375,-0.25],"name":"left_arm","children":[26,27,28,29]}],"bufferViews":[{"buffer":0,"byteOffset":0,"byteLength":432,"target":34962,"byteStride":12},{"buffer":0,"byteOffset":432,"byteLength":432,"target":34962,"byteStride":12},{"buffer":0,"byteOffset":864,"byteLength":288,"target":34962,"byteStride":8},{"buffer":0,"byteOffset":1152,"byteLength":432,"target":34962,"byteStride":12},{"buffer":0,"byteOffset":1584,"byteLength":432,"target":34962,"byteStride":12},{"buffer":0,"byteOffset":2016,"byteLength":288,"target":34962,"byteStride":8},{"buffer":0,"byteOffset":2304,"byteLength":432,"target":34962,"byteStride":12},{"buffer":0,"byteOffset":2736,"byteLength":432,"target":34962,"byteStride":12},{"buffer":0,"byteOffset":3168,"byteLength":288,"target":34962,"byteStride":8},{"buffer":0,"byteOffset":3456,"byteLength":432,"target":34962,"byteStride":12},{"buffer":0,"byteOffset":3888,"byteLength":432,"target":34962,"byteStride":12},{"buffer":0,"byteOffset":4320,"byteLength":288,"target":34962,"byteStride":8},{"buffer":0,"byteOffset":4608,"byteLength":432,"target":34962,"byteStride":12},{"buffer":0,"byteOffset":5040,"byteLength":432,"target":34962,"byteStride":12},{"buffer":0,"byteOffset":5472,"byteLength":288,"target":34962,"byteStride":8},{"buffer":0,"byteOffset":5760,"byteLength":432,"target":34962,"byteStride":12},{"buffer":0,"byteOffset":6192,"byteLength":432,"target":34962,"byteStride":12},{"buffer":0,"byteOffset":6624,"byteLength":288,"target":34962,"byteStride":8},{"buffer":0,"byteOffset":6912,"byteLength":432,"target":34962,"byteStride":12},{"buffer":0,"byteOffset":7344,"byteLength":432,"target":34962,"byteStride":12},{"buffer":0,"byteOffset":7776,"byteLength":288,"target":34962,"byteStride":8},{"buffer":0,"byteOffset":8064,"byteLength":432,"target":34962,"byteStride":12},{"buffer":0,"byteOffset":8496,"byteLength":432,"target":34962,"byteStride":12},{"buffer":0,"byteOffset":8928,"byteLength":288,"target":34962,"byteStride":8},{"buffer":0,"byteOffset":9216,"byteLength":432,"target":34962,"byteStride":12},{"buffer":0,"byteOffset":9648,"byteLength":432,"target":34962,"byteStride":12},{"buffer":0,"byteOffset":10080,"byteLength":288,"target":34962,"byteStride":8},{"buffer":0,"byteOffset":10368,"byteLength":432,"target":34962,"byteStride":12},{"buffer":0,"byteOffset":10800,"byteLength":432,"target":34962,"byteStride":12},{"buffer":0,"byteOffset":11232,"byteLength":288,"target":34962,"byteStride":8},{"buffer":0,"byteOffset":11520,"byteLength":432,"target":34962,"byteStride":12},{"buffer":0,"byteOffset":11952,"byteLength":432,"target":34962,"byteStride":12},{"buffer":0,"byteOffset":12384,"byteLength":288,"target":34962,"byteStride":8},{"buffer":0,"byteOffset":12672,"byteLength":432,"target":34962,"byteStride":12},{"buffer":0,"byteOffset":13104,"byteLength":432,"target":34962,"byteStride":12},{"buffer":0,"byteOffset":13536,"byteLength":288,"target":34962,"byteStride":8},{"buffer":0,"byteOffset":13824,"byteLength":432,"target":34962,"byteStride":12},{"buffer":0,"byteOffset":14256,"byteLength":432,"target":34962,"byteStride":12},{"buffer":0,"byteOffset":14688,"byteLength":288,"target":34962,"byteStride":8},{"buffer":0,"byteOffset":14976,"byteLength":432,"target":34962,"byteStride":12},{"buffer":0,"byteOffset":15408,"byteLength":432,"target":34962,"byteStride":12},{"buffer":0,"byteOffset":15840,"byteLength":288,"target":34962,"byteStride":8},{"buffer":0,"byteOffset":16128,"byteLength":432,"target":34962,"byteStride":12},{"buffer":0,"byteOffset":16560,"byteLength":432,"target":34962,"byteStride":12},{"buffer":0,"byteOffset":16992,"byteLength":288,"target":34962,"byteStride":8},{"buffer":0,"byteOffset":17280,"byteLength":432,"target":34962,"byteStride":12},{"buffer":0,"byteOffset":17712,"byteLength":432,"target":34962,"byteStride":12},{"buffer":0,"byteOffset":18144,"byteLength":288,"target":34962,"byteStride":8},{"buffer":0,"byteOffset":18432,"byteLength":432,"target":34962,"byteStride":12},{"buffer":0,"byteOffset":18864,"byteLength":432,"target":34962,"byteStride":12},{"buffer":0,"byteOffset":19296,"byteLength":288,"target":34962,"byteStride":8},{"buffer":0,"byteOffset":19584,"byteLength":432,"target":34962,"byteStride":12},{"buffer":0,"byteOffset":20016,"byteLength":432,"target":34962,"byteStride":12},{"buffer":0,"byteOffset":20448,"byteLength":288,"target":34962,"byteStride":8},{"buffer":0,"byteOffset":20736,"byteLength":432,"target":34962,"byteStride":12},{"buffer":0,"byteOffset":21168,"byteLength":432,"target":34962,"byteStride":12},{"buffer":0,"byteOffset":21600,"byteLength":288,"target":34962,"byteStride":8},{"buffer":0,"byteOffset":21888,"byteLength":432,"target":34962,"byteStride":12},{"buffer":0,"byteOffset":22320,"byteLength":432,"target":34962,"byteStride":12},{"buffer":0,"byteOffset":22752,"byteLength":288,"target":34962,"byteStride":8},{"buffer":0,"byteOffset":23040,"byteLength":432,"target":34962,"byteStride":12},{"buffer":0,"byteOffset":23472,"byteLength":432,"target":34962,"byteStride":12},{"buffer":0,"byteOffset":23904,"byteLength":288,"target":34962,"byteStride":8},{"buffer":0,"byteOffset":24192,"byteLength":432,"target":34962,"byteStride":12},{"buffer":0,"byteOffset":24624,"byteLength":432,"target":34962,"byteStride":12},{"buffer":0,"byteOffset":25056,"byteLength":288,"target":34962,"byteStride":8},{"buffer":0,"byteOffset":25344,"byteLength":432,"target":34962,"byteStride":12},{"buffer":0,"byteOffset":25776,"byteLength":432,"target":34962,"byteStride":12},{"buffer":0,"byteOffset":26208,"byteLength":288,"target":34962,"byteStride":8},{"buffer":0,"byteOffset":26496,"byteLength":432,"target":34962,"byteStride":12},{"buffer":0,"byteOffset":26928,"byteLength":432,"target":34962,"byteStride":12},{"buffer":0,"byteOffset":27360,"byteLength":288,"target":34962,"byteStride":8}],"buffers":[{"byteLength":27648,"uri":"data:application/octet-stream;base64,"}],"accessors":[{"bufferView":0,"componentType":5126,"count":36,"max":[0.125,0.25,0.375],"min":[-0.125,0.0625,-0.375],"type":"VEC3"},{"bufferView":1,"componentType":5126,"count":36,"max":[1,1,1],"min":[-1,-1,-1],"type":"VEC3"},{"bufferView":2,"componentType":5126,"count":36,"max":[0.99951171875,0.99951171875],"min":[0.00048828125,0.53173828125],"type":"VEC2"},{"bufferView":3,"componentType":5126,"count":36,"max":[0.0000625000029685907,0.125,0.375],"min":[0,0,-0.375],"type":"VEC3"},{"bufferView":4,"componentType":5126,"count":36,"max":[1,1,1],"min":[-1,-1,-1],"type":"VEC3"},{"bufferView":5,"componentType":5126,"count":36,"max":[0.75048828125,0.90576171875],"min":[0.00048828125,0.46923828125],"type":"VEC2"},{"bufferView":6,"componentType":5126,"count":36,"max":[0.0000625000029685907,0.125,0.375],"min":[0,0,-0.375],"type":"VEC3"},{"bufferView":7,"componentType":5126,"count":36,"max":[1,1,1],"min":[-1,-1,-1],"type":"VEC3"},{"bufferView":8,"componentType":5126,"count":36,"max":[0.75048828125,0.90576171875],"min":[0.00048828125,0.46923828125],"type":"VEC2"},{"bufferView":9,"componentType":5126,"count":36,"max":[0.0625,0.18593749403953552,0.609375],"min":[-0.0625,0.06093750149011612,0.359375],"type":"VEC3"},{"bufferView":10,"componentType":5126,"count":36,"max":[1,1,1],"min":[-1,-1,-1],"type":"VEC3"},{"bufferView":11,"componentType":5126,"count":36,"max":[0.37451171875,0.99951171875],"min":[0.00048828125,0.81298828125],"type":"VEC2"},{"bufferView":12,"componentType":5126,"count":36,"max":[0.03125,0.02968749962747097,0.24062499403953552],"min":[-0.03125,-0.03281249850988388,-0.00937500037252903],"type":"VEC3"},{"bufferView":13,"componentType":5126,"count":36,"max":[1,1,1],"min":[-1,-1,-1],"type":"VEC3"},{"bufferView":14,"componentType":5126,"count":36,"max":[0.31201171875,0.81201171875],"min":[0.00048828125,0.65673828125],"type":"VEC2"},{"bufferView":15,"componentType":5126,"count":36,"max":[0.0000625000029685907,0.10781250149011612,0.12343750149011612],"min":[0,-0.01718750037252903,-0.12656250596046448],"type":"VEC3"},{"bufferView":16,"componentType":5126,"count":36,"max":[1,1,1],"min":[-1,-1,-1],"type":"VEC3"},{"bufferView":17,"componentType":5126,"count":36,"max":[0.56298828125,0.59326171875],"min":[0.31298828125,0.40673828125],"type":"VEC2"},{"bufferView":18,"componentType":5126,"count":36,"max":[0.0000625000029685907,0.10781250149011612,0.12343750149011612],"min":[0,-0.01718750037252903,-0.12656250596046448],"type":"VEC3"},{"bufferView":19,"componentType":5126,"count":36,"max":[1,1,1],"min":[-1,-1,-1],"type":"VEC3"},{"bufferView":20,"componentType":5126,"count":36,"max":[0.56298828125,0.59326171875],"min":[0.31298828125,0.40673828125],"type":"VEC2"},{"bufferView":21,"componentType":5126,"count":36,"max":[0.09375,0.0625,0.02968749962747097],"min":[-0.09375,-0.0625,-0.22031250596046448],"type":"VEC3"},{"bufferView":22,"componentType":5126,"count":36,"max":[1,1,1],"min":[-1,-1,-1],"type":"VEC3"},{"bufferView":23,"componentType":5126,"count":36,"max":[0.43701171875,0.46826171875],"min":[0.00048828125,0.28173828125],"type":"VEC2"},{"bufferView":24,"componentType":5126,"count":36,"max":[0.0625,0.02500000037252903,0.0625],"min":[-0.125,-0.03750000149011612,-0.0625],"type":"VEC3"},{"bufferView":25,"componentType":5126,"count":36,"max":[1,1,1],"min":[-1,-1,-1],"type":"VEC3"},{"bufferView":26,"componentType":5126,"count":36,"max":[0.93701171875,0.99951171875],"min":[0.62548828125,0.90673828125],"type":"VEC2"},{"bufferView":27,"componentType":5126,"count":36,"max":[0.011992854066193104,0.013170604594051838,0.03056298941373825],"min":[-0.11300714313983917,-0.04932939633727074,-0.03193701058626175],"type":"VEC3"},{"bufferView":28,"componentType":5126,"count":36,"max":[1,1,1],"min":[-1,-1,-1],"type":"VEC3"},{"bufferView":29,"componentType":5126,"count":36,"max":[0.53076171875,0.24951171875],"min":[0.34423828125,0.18798828125],"type":"VEC2"},{"bufferView":30,"componentType":5126,"count":36,"max":[-0.014569645747542381,0.010045604780316353,0.02587549015879631],"min":[-0.13956964015960693,-0.052454397082328796,-0.03662450984120369],"type":"VEC3"},{"bufferView":31,"componentType":5126,"count":36,"max":[1,1,1],"min":[-1,-1,-1],"type":"VEC3"},{"bufferView":32,"componentType":5126,"count":36,"max":[0.74951171875,0.28076171875],"min":[0.56298828125,0.21923828125],"type":"VEC2"},{"bufferView":33,"componentType":5126,"count":36,"max":[-0.008319646120071411,0.005358104594051838,0.03056298941373825],"min":[-0.1333196461200714,-0.05714189633727074,-0.03193701058626175],"type":"VEC3"},{"bufferView":34,"componentType":5126,"count":36,"max":[1,1,1],"min":[-1,-1,-1],"type":"VEC3"},{"bufferView":35,"componentType":5126,"count":36,"max":[0.37451171875,0.28076171875],"min":[0.18798828125,0.21923828125],"type":"VEC2"},{"bufferView":36,"componentType":5126,"count":36,"max":[0.125,0.02500000037252903,0.0625],"min":[-0.0625,-0.03750000149011612,-0.0625],"type":"VEC3"},{"bufferView":37,"componentType":5126,"count":36,"max":[1,1,1],"min":[-1,-1,-1],"type":"VEC3"},{"bufferView":38,"componentType":5126,"count":36,"max":[0.81201171875,0.46826171875],"min":[0.50048828125,0.37548828125],"type":"VEC2"},{"bufferView":39,"componentType":5126,"count":36,"max":[0.11300714313983917,0.013170604594051838,0.03056298941373825],"min":[-0.011992854066193104,-0.04932939633727074,-0.03193701058626175],"type":"VEC3"},{"bufferView":40,"componentType":5126,"count":36,"max":[1,1,1],"min":[-1,-1,-1],"type":"VEC3"},{"bufferView":41,"componentType":5126,"count":36,"max":[0.18701171875,0.28076171875],"min":[0.00048828125,0.21923828125],"type":"VEC2"},{"bufferView":42,"componentType":5126,"count":36,"max":[0.13956964015960693,0.010045604780316353,0.02587549015879631],"min":[0.014569645747542381,-0.052454397082328796,-0.03662450984120369],"type":"VEC3"},{"bufferView":43,"componentType":5126,"count":36,"max":[1,1,1],"min":[-1,-1,-1],"type":"VEC3"},{"bufferView":44,"componentType":5126,"count":36,"max":[0.59326171875,0.31201171875],"min":[0.40673828125,0.25048828125],"type":"VEC2"},{"bufferView":45,"componentType":5126,"count":36,"max":[0.1333196461200714,0.005358104594051838,0.03056298941373825],"min":[0.008319646120071411,-0.05714189633727074,-0.03193701058626175],"type":"VEC3"},{"bufferView":46,"componentType":5126,"count":36,"max":[1,1,1],"min":[-1,-1,-1],"type":"VEC3"},{"bufferView":47,"componentType":5126,"count":36,"max":[0.81201171875,0.34326171875],"min":[0.62548828125,0.28173828125],"type":"VEC2"},{"bufferView":48,"componentType":5126,"count":36,"max":[0.1875,0.02500000037252903,0.0625],"min":[-0.0625,-0.03750000149011612,0],"type":"VEC3"},{"bufferView":49,"componentType":5126,"count":36,"max":[1,1,1],"min":[-1,-1,-1],"type":"VEC3"},{"bufferView":50,"componentType":5126,"count":36,"max":[0.93701171875,0.84326171875],"min":[0.62548828125,0.78173828125],"type":"VEC2"},{"bufferView":51,"componentType":5126,"count":36,"max":[0.16144464910030365,0.013170604594051838,0.01943700946867466],"min":[-0.02605535462498665,-0.04932939633727074,-0.04306298866868019],"type":"VEC3"},{"bufferView":52,"componentType":5126,"count":36,"max":[1,1,1],"min":[-1,-1,-1],"type":"VEC3"},{"bufferView":53,"componentType":5126,"count":36,"max":[0.87451171875,0.71826171875],"min":[0.62548828125,0.65673828125],"type":"VEC2"},{"bufferView":54,"componentType":5126,"count":36,"max":[0.13956964015960693,0.010045604780316353,0.03662450984120369],"min":[0.014569645747542381,-0.052454397082328796,-0.02587549015879631],"type":"VEC3"},{"bufferView":55,"componentType":5126,"count":36,"max":[1,1,1],"min":[-1,-1,-1],"type":"VEC3"},{"bufferView":56,"componentType":5126,"count":36,"max":[0.65576171875,0.37451171875],"min":[0.46923828125,0.31298828125],"type":"VEC2"},{"bufferView":57,"componentType":5126,"count":36,"max":[0.1333196461200714,0.005358104594051838,0.03193701058626175],"min":[0.008319646120071411,-0.05714189633727074,-0.03056298941373825],"type":"VEC3"},{"bufferView":58,"componentType":5126,"count":36,"max":[1,1,1],"min":[-1,-1,-1],"type":"VEC3"},{"bufferView":59,"componentType":5126,"count":36,"max":[0.49951171875,0.40576171875],"min":[0.31298828125,0.34423828125],"type":"VEC2"},{"bufferView":60,"componentType":5126,"count":36,"max":[0.0625,0.02500000037252903,0.0625],"min":[-0.1875,-0.03750000149011612,0],"type":"VEC3"},{"bufferView":61,"componentType":5126,"count":36,"max":[1,1,1],"min":[-1,-1,-1],"type":"VEC3"},{"bufferView":62,"componentType":5126,"count":36,"max":[0.93701171875,0.90576171875],"min":[0.62548828125,0.84423828125],"type":"VEC2"},{"bufferView":63,"componentType":5126,"count":36,"max":[0.02605535462498665,0.013170604594051838,0.01943700946867466],"min":[-0.16144464910030365,-0.04932939633727074,-0.04306298866868019],"type":"VEC3"},{"bufferView":64,"componentType":5126,"count":36,"max":[1,1,1],"min":[-1,-1,-1],"type":"VEC3"},{"bufferView":65,"componentType":5126,"count":36,"max":[0.87451171875,0.78076171875],"min":[0.62548828125,0.71923828125],"type":"VEC2"},{"bufferView":66,"componentType":5126,"count":36,"max":[-0.014569645747542381,0.010045604780316353,0.03662450984120369],"min":[-0.13956964015960693,-0.052454397082328796,-0.02587549015879631],"type":"VEC3"},{"bufferView":67,"componentType":5126,"count":36,"max":[1,1,1],"min":[-1,-1,-1],"type":"VEC3"},{"bufferView":68,"componentType":5126,"count":36,"max":[0.37451171875,0.74951171875],"min":[0.18798828125,0.68798828125],"type":"VEC2"},{"bufferView":69,"componentType":5126,"count":36,"max":[-0.008319646120071411,0.005358104594051838,0.03193701058626175],"min":[-0.1333196461200714,-0.05714189633727074,-0.03056298941373825],"type":"VEC3"},{"bufferView":70,"componentType":5126,"count":36,"max":[1,1,1],"min":[-1,-1,-1],"type":"VEC3"},{"bufferView":71,"componentType":5126,"count":36,"max":[0.37451171875,0.81201171875],"min":[0.18798828125,0.75048828125],"type":"VEC2"}],"materials":[{"pbrMetallicRoughness":{"metallicFactor":0,"roughnessFactor":1,"baseColorTexture":{"index":0}},"alphaMode":"MASK","alphaCutoff":0.05,"doubleSided":true,"name":"texture.png"}],"textures":[{"sampler":0,"source":0,"name":"texture.png"}],"samplers":[{"magFilter":9728,"minFilter":9728,"wrapS":33071,"wrapT":33071}],"images":[{"mimeType":"image/png","uri":"data:image/png;base64,"}],"meshes":[{"primitives":[{"mode":4,"attributes":{"POSITION":0,"NORMAL":1,"TEXCOORD_0":2},"material":0}]},{"primitives":[{"mode":4,"attributes":{"POSITION":3,"NORMAL":4,"TEXCOORD_0":5},"material":0}]},{"primitives":[{"mode":4,"attributes":{"POSITION":6,"NORMAL":7,"TEXCOORD_0":8},"material":0}]},{"primitives":[{"mode":4,"attributes":{"POSITION":9,"NORMAL":10,"TEXCOORD_0":11},"material":0}]},{"primitives":[{"mode":4,"attributes":{"POSITION":12,"NORMAL":13,"TEXCOORD_0":14},"material":0}]},{"primitives":[{"mode":4,"attributes":{"POSITION":15,"NORMAL":16,"TEXCOORD_0":17},"material":0}]},{"primitives":[{"mode":4,"attributes":{"POSITION":18,"NORMAL":19,"TEXCOORD_0":20},"material":0}]},{"primitives":[{"mode":4,"attributes":{"POSITION":21,"NORMAL":22,"TEXCOORD_0":23},"material":0}]},{"primitives":[{"mode":4,"attributes":{"POSITION":24,"NORMAL":25,"TEXCOORD_0":26},"material":0}]},{"primitives":[{"mode":4,"attributes":{"POSITION":27,"NORMAL":28,"TEXCOORD_0":29},"material":0}]},{"primitives":[{"mode":4,"attributes":{"POSITION":30,"NORMAL":31,"TEXCOORD_0":32},"material":0}]},{"primitives":[{"mode":4,"attributes":{"POSITION":33,"NORMAL":34,"TEXCOORD_0":35},"material":0}]},{"primitives":[{"mode":4,"attributes":{"POSITION":36,"NORMAL":37,"TEXCOORD_0":38},"material":0}]},{"primitives":[{"mode":4,"attributes":{"POSITION":39,"NORMAL":40,"TEXCOORD_0":41},"material":0}]},{"primitives":[{"mode":4,"attributes":{"POSITION":42,"NORMAL":43,"TEXCOORD_0":44},"material":0}]},{"primitives":[{"mode":4,"attributes":{"POSITION":45,"NORMAL":46,"TEXCOORD_0":47},"material":0}]},{"primitives":[{"mode":4,"attributes":{"POSITION":48,"NORMAL":49,"TEXCOORD_0":50},"material":0}]},{"primitives":[{"mode":4,"attributes":{"POSITION":51,"NORMAL":52,"TEXCOORD_0":53},"material":0}]},{"primitives":[{"mode":4,"attributes":{"POSITION":54,"NORMAL":55,"TEXCOORD_0":56},"material":0}]},{"primitives":[{"mode":4,"attributes":{"POSITION":57,"NORMAL":58,"TEXCOORD_0":59},"material":0}]},{"primitives":[{"mode":4,"attributes":{"POSITION":60,"NORMAL":61,"TEXCOORD_0":62},"material":0}]},{"primitives":[{"mode":4,"attributes":{"POSITION":63,"NORMAL":64,"TEXCOORD_0":65},"material":0}]},{"primitives":[{"mode":4,"attributes":{"POSITION":66,"NORMAL":67,"TEXCOORD_0":68},"material":0}]},{"primitives":[{"mode":4,"attributes":{"POSITION":69,"NORMAL":70,"TEXCOORD_0":71},"material":0}]}]}